<svg width="545" height="2297" viewBox="0 0 545 2297" fill="none" xmlns="http://www.w3.org/2000/svg">
<circle cx="195.5" cy="841.5" r="14" transform="rotate(-90 195.5 841.5)" stroke="white"/>
<path d="M195 927L194.5 927L194.5 927.5L195 927.5L195 927ZM195 844.667C196.473 844.667 197.667 843.473 197.667 842C197.667 840.527 196.473 839.333 195 839.333C193.527 839.333 192.333 840.527 192.333 842C192.333 843.473 193.527 844.667 195 844.667ZM297 926.5L195 926.5L195 927.5L297 927.5L297 926.5ZM195.5 927L195.5 842L194.5 842L194.5 927L195.5 927Z" fill="white"/>
<circle cx="118.5" cy="303.5" r="14" fill="#52188C" stroke="white"/>
<circle cx="14.5" cy="233.5" r="14" transform="rotate(-180 14.5 233.5)" fill="#52188C" stroke="white"/>
<path d="M17.6667 234C17.6667 232.527 16.4727 231.333 15 231.333C13.5273 231.333 12.3333 232.527 12.3333 234C12.3333 235.473 13.5273 236.667 15 236.667C16.4727 236.667 17.6667 235.473 17.6667 234ZM297 233.5L15 233.5V234.5L297 234.5V233.5Z" fill="white"/>
<path d="M227 303V303.5H227.5V303H227ZM121.667 303C121.667 301.527 120.473 300.333 119 300.333C117.527 300.333 116.333 301.527 116.333 303C116.333 304.473 117.527 305.667 119 305.667C120.473 305.667 121.667 304.473 121.667 303ZM226.5 234L226.5 303H227.5L227.5 234H226.5ZM227 302.5L119 302.5V303.5L227 303.5V302.5Z" fill="white"/>
<circle cx="14.5" cy="14.5" r="14" transform="matrix(4.37114e-08 -1 -1 -4.37114e-08 265 1827)" fill="#52188C" stroke="white"/>
<circle cx="14.5" cy="14.5" r="14" transform="matrix(4.37114e-08 1 1 -4.37114e-08 306 1902)" fill="#52188C" stroke="white"/>
<path d="M320 1913.33C321.473 1913.33 322.667 1914.53 322.667 1916C322.667 1917.47 321.473 1918.67 320 1918.67C318.527 1918.67 317.333 1917.47 317.333 1916C317.333 1914.53 318.527 1913.33 320 1913.33ZM320.5 1634L320.5 1916L319.5 1916L319.5 1634L320.5 1634Z" fill="white"/>
<path d="M251 1704L250.5 1704L250.5 1703.5L251 1703.5L251 1704ZM251 1809.33C252.473 1809.33 253.667 1810.53 253.667 1812C253.667 1813.47 252.473 1814.67 251 1814.67C249.527 1814.67 248.333 1813.47 248.333 1812C248.333 1810.53 249.527 1809.33 251 1809.33ZM320 1704.5L251 1704.5L251 1703.5L320 1703.5L320 1704.5ZM251.5 1704L251.5 1812L250.5 1812L250.5 1704L251.5 1704Z" fill="white"/>
<circle cx="376.5" cy="979.5" r="14" transform="rotate(-90 376.5 979.5)" fill="#52188C" stroke="white"/>
<circle cx="376.5" cy="869.5" r="14" transform="rotate(-90 376.5 869.5)" stroke="white"/>
<circle cx="465.5" cy="506.5" r="14" transform="rotate(-90 465.5 506.5)" stroke="white"/>
<circle cx="296.5" cy="1397.5" r="14" transform="rotate(-90 296.5 1397.5)" fill="#52188C" stroke="white"/>
<circle cx="296.5" cy="1463.5" r="14" transform="rotate(-90 296.5 1463.5)" fill="#52188C" stroke="white"/>
<circle cx="376.5" cy="1548.5" r="14" transform="rotate(-90 376.5 1548.5)" stroke="white"/>
<path d="M376 1545.11L373.113 1548L376 1550.89L378.887 1548L376 1545.11ZM376.5 2297L376.5 1548L375.5 1548L375.5 2297L376.5 2297Z" fill="url(#paint0_linear_508_3)"/>
<path d="M296 1394.33C294.527 1394.33 293.333 1395.53 293.333 1397C293.333 1398.47 294.527 1399.67 296 1399.67C297.473 1399.67 298.667 1398.47 298.667 1397C298.667 1395.53 297.473 1394.33 296 1394.33ZM295.5 2.18557e-08L295.5 1397L296.5 1397L296.5 -2.18557e-08L295.5 2.18557e-08Z" fill="white"/>
<path d="M376 1106L376.5 1106L376.5 1106.5L376 1106.5L376 1106ZM376 982.667C374.527 982.667 373.333 981.473 373.333 980C373.333 978.527 374.527 977.333 376 977.333C377.473 977.333 378.667 978.527 378.667 980C378.667 981.473 377.473 982.667 376 982.667ZM296 1105.5L376 1105.5L376 1106.5L296 1106.5L296 1105.5ZM375.5 1106L375.5 980L376.5 980L376.5 1106L375.5 1106Z" fill="white"/>
<path d="M296 1633L295.5 1633L295.5 1633.5L296 1633.5L296 1633ZM296 1460.11L293.113 1463L296 1465.89L298.887 1463L296 1460.11ZM377 1632.5L296 1632.5L296 1633.5L377 1633.5L377 1632.5ZM296.5 1633L296.5 1463L295.5 1463L295.5 1633L296.5 1633Z" fill="white"/>
<path d="M376 505L376.5 505L376.5 504.5L376 504.5L376 505ZM376 867.333C374.527 867.333 373.333 868.527 373.333 870C373.333 871.473 374.527 872.667 376 872.667C377.473 872.667 378.667 871.473 378.667 870C378.667 868.527 377.473 867.333 376 867.333ZM296 505.5L376 505.5L376 504.5L296 504.5L296 505.5ZM375.5 505L375.5 870L376.5 870L376.5 505L375.5 505Z" fill="white"/>
<path d="M466 397L465.5 397L465.5 396.5L466 396.5L466 397ZM466 502.333C467.473 502.333 468.667 503.527 468.667 505C468.667 506.473 467.473 507.667 466 507.667C464.527 507.667 463.333 506.473 463.333 505C463.333 503.527 464.527 502.333 466 502.333ZM545 397.5L466 397.5L466 396.5L545 396.5L545 397.5ZM466.5 397L466.5 505L465.5 505L465.5 397L466.5 397Z" fill="white"/>
<defs>
<linearGradient id="paint0_linear_508_3" x1="376.5" y1="2297" x2="376.5" y2="1548" gradientUnits="userSpaceOnUse">
<stop stop-color="white" stop-opacity="0"/>
<stop offset="0.175" stop-color="white"/>
</linearGradient>
</defs>
</svg>
