<?xml version="1.0" encoding="utf-8"?>
<!-- Generator: Adobe Illustrator 27.9.0, SVG Export Plug-In . SVG Version: 6.00 Build 0)  -->
<svg version="1.1" id="Capa_1" xmlns="http://www.w3.org/2000/svg" xmlns:xlink="http://www.w3.org/1999/xlink" x="0px" y="0px"
	 viewBox="0 0 310 304.2" style="enable-background:new 0 0 310 304.2;" xml:space="preserve">
<style type="text/css">
	.st0{fill:none;stroke:#FFFFFF;}
	.st1{fill:#FFFFFF;}
	.st2{fill:#212951;stroke:#FFFFFF;}
</style>
<circle class="st0" cx="42" cy="17.5" r="14"/>
<path class="st1" d="M39.8,17.1c0,1.5,1.2,2.7,2.7,2.7s2.7-1.2,2.7-2.7s-1.2-2.7-2.7-2.7S39.8,15.6,39.8,17.1z M42.5,17.5h267v-1
	h-267V17.5z"/>
<circle class="st2" cx="14.3" cy="236.1" r="13.3"/>
<path class="st1" d="M135,236.1v-0.5h0.5v0.5H135z M16.9,236.1c0,1.5-1.2,2.7-2.7,2.7s-2.7-1.2-2.7-2.7s1.2-2.7,2.7-2.7
	S16.9,234.6,16.9,236.1z M134.5,303.4v-67.2h1v67.2H134.5z M135,236.6H14.3v-1H135V236.6z"/>
</svg>
