<?xml version="1.0" encoding="utf-8"?>
<!-- Generator: Adobe Illustrator 27.9.0, SVG Export Plug-In . SVG Version: 6.00 Build 0)  -->
<svg version="1.1" id="Capa_1" xmlns="http://www.w3.org/2000/svg" xmlns:xlink="http://www.w3.org/1999/xlink" x="0px" y="0px"
	 viewBox="0 0 229 243" style="enable-background:new 0 0 229 243;" xml:space="preserve">
<style type="text/css">
	.st0{fill:#212951;stroke:#FFFFFF;}
	.st1{fill:#FFFFFF;}
</style>
<circle class="st0" cx="142.5" cy="8.5" r="8.5"/>
<path class="st1" d="M139.8,8.5c0,1.5,1.2,2.7,2.7,2.7s2.7-1.2,2.7-2.7s-1.2-2.7-2.7-2.7S139.8,7,139.8,8.5z M0,9h142.5V8H0V9z"/>
<circle class="st0" cx="85.5" cy="149.5" r="8.5"/>
<path class="st1" d="M84.9,149.5c0,1.5,0.7,2.7,1.6,2.7c0.9,0,1.6-1.2,1.6-2.7s-0.7-2.7-1.6-2.7C85.7,146.8,84.9,148,84.9,149.5z
	 M0,150h86.5v-1H0V150z"/>
</svg>
