<?xml version="1.0" encoding="utf-8"?>
<!-- Generator: Adobe Illustrator 27.9.0, SVG Export Plug-In . SVG Version: 6.00 Build 0)  -->
<svg version="1.1" id="Capa_1" xmlns="http://www.w3.org/2000/svg" xmlns:xlink="http://www.w3.org/1999/xlink" x="0px" y="0px"
	 viewBox="0 0 631.5 286" style="enable-background:new 0 0 631.5 286;" xml:space="preserve">
<style type="text/css">
	.st0{fill:#1C2140;stroke:#FFFFFF;}
	.st1{fill:#FFFFFF;}
	.st2{fill:#212951;stroke:#FFFFFF;}
</style>
<circle class="st0" cx="14" cy="252.5" r="14"/>
<path class="st1" d="M16.2,252c0-1.5-1.2-2.7-2.7-2.7c-1.5,0-2.7,1.2-2.7,2.7s1.2,2.7,2.7,2.7C15,254.7,16.2,253.5,16.2,252z
	 M631.5,251.5h-618v1h618V251.5z"/>
<circle class="st2" cx="95.3" cy="178.2" r="13.3"/>
<path class="st1" d="M215.5,178v0.5h0.5V178H215.5z M98.2,178c0-1.5-1.2-2.7-2.7-2.7c-1.5,0-2.7,1.2-2.7,2.7s1.2,2.7,2.7,2.7
	C97,180.7,98.2,179.5,98.2,178z M215,0v178h1V0H215z M215.5,177.5h-120v1h120V177.5z"/>
</svg>
