<svg width="189" height="82" viewBox="0 0 189 82" fill="none" xmlns="http://www.w3.org/2000/svg">
<path d="M12.8184 41.9101C12.8184 45.4987 10.6131 47.2931 8.26766 47.2931C6.06239 47.2931 4.33643 45.7055 4.33643 43.3573C4.33643 41.4941 5.50917 40.0443 6.95725 40.1132C7.78581 40.149 8.3008 40.6314 8.3008 41.3205C8.3008 41.8386 7.92093 42.2879 7.4034 42.2879C7.12806 42.2879 6.99039 42.2189 6.92156 42.1143C7.16375 42.7345 7.98977 42.8034 8.33394 42.8034C9.98853 42.8034 11.7119 41.6983 12.6093 39.7661C12.747 40.3863 12.8159 41.078 12.8159 41.905L12.8184 41.9101ZM4.54548 26.0344C4.54548 24.5846 5.64939 23.8266 6.61307 23.8266C7.40595 23.8266 7.81896 24.2758 7.85465 24.8271C8.19882 24.4825 8.57869 24.1022 9.16506 23.8955C7.64814 23.066 6.68191 21.3074 6.9598 19.582C7.09747 19.5131 7.57931 19.3752 8.40788 19.3752C9.23644 19.3752 10.269 19.6866 10.9599 20.2379C10.9599 18.099 11.9592 17.5452 11.9592 15.9576C11.9592 15.5773 11.8904 15.1638 11.7859 14.7835C13.6138 14.8192 15.7171 16.7157 15.7171 20.2379C15.7171 21.9633 15.0288 23.9644 13.9249 25.2074C11.7196 25.2074 9.78712 28.3136 7.10002 28.3136C5.65194 28.3136 4.54803 27.3463 4.54803 26.0369L4.54548 26.0344ZM6.2689 41.6702C6.2689 41.1189 6.61307 40.7028 7.13061 40.7028C7.37281 40.7028 7.51048 40.7718 7.64814 40.8764C7.51048 40.6339 7.19944 40.565 6.9598 40.565C5.82275 40.565 4.8922 41.7391 4.8922 43.3599C4.8922 45.292 6.34028 46.7417 8.27021 46.7417C10.7534 46.7417 12.0612 44.8096 12.3391 42.3925C11.6508 43.9112 10.3404 45.3609 8.3059 45.3609C7.10002 45.3609 6.20261 44.5314 5.85844 43.4288C6.40912 44.3961 7.16885 44.8096 8.3059 44.8096C9.92734 44.8096 11.4086 43.3956 11.9261 41.7723C10.891 42.7396 9.85851 43.3599 8.34159 43.3599C7.03118 43.3599 6.274 42.5992 6.274 41.6676L6.2689 41.6702ZM12.4742 25.1028C12.0612 25.067 10.9216 25.0338 9.92224 25.6541C8.40533 26.6214 7.09492 27.5173 6.16437 26.3789C7.16375 27.137 8.16313 26.2054 9.74888 25.2048C10.5774 24.6867 11.8165 24.6535 12.4385 24.6535C11.3015 24.0665 9.95539 23.0991 9.26704 22.2722C10.3353 22.9281 11.4723 23.6862 12.6807 24.309C11.921 23.1706 10.4066 21.754 8.61183 20.6514C10.1976 21.1006 11.9898 22.7214 13.0937 24.0333C12.7139 22.5504 12.4385 20.6846 12.5762 19.1659C12.8184 20.7892 13.1957 22.5146 13.6113 23.8955C14.1288 20.9628 13.7846 18.5814 13.3002 16.7846C14.3685 18.4411 14.5061 20.8913 14.1288 23.9976C14.6107 23.3084 15.197 21.6851 15.197 20.2354C15.197 17.7162 14.2308 16.0597 12.7139 15.4369C12.6094 15.4012 12.4385 15.3323 12.334 15.3323C12.4028 15.539 12.4385 15.8504 12.4385 16.1261C12.4385 17.438 11.4723 18.2318 11.4723 20.2328C11.4723 20.7841 11.508 21.2691 11.6457 21.6826C10.5418 20.1639 9.30018 19.8193 8.33649 19.8193C7.99232 19.8193 7.75012 19.8551 7.43909 19.924C7.37026 21.0292 7.8521 22.9256 10.3353 23.9618C8.12999 24.3064 8.12999 25.6872 7.09492 25.6872C6.68191 25.6872 6.33773 25.3759 6.33773 24.9266C6.33773 24.5463 6.64877 24.2707 7.06177 24.3396C6.85527 24.2707 6.7176 24.2707 6.61307 24.2707C5.64684 24.2707 5.09616 25.2023 5.09616 26.0318C5.09616 27.0681 5.92473 27.8261 7.09492 27.8261C8.95601 27.8261 10.6794 25.9272 12.4742 25.1002V25.1028ZM12.9561 49.9884C12.9561 52.6811 11.921 54.1309 10.6794 55.5117C9.78202 56.548 8.7495 57.6506 8.0586 59.6874C6.9547 59.1003 6.05985 57.3749 6.05985 55.236C6.05985 52.4055 7.23259 50.5422 8.47416 49.3681C9.92224 47.9873 11.508 47.5049 12.2652 46.193C12.6782 47.0889 12.9535 48.8168 12.9535 49.9884H12.9561ZM11.6457 48.4697C9.71574 50.5397 8.33649 53.0257 7.71443 56.6832C7.78326 52.6786 9.30018 50.1594 11.197 48.0537C8.02546 49.7459 6.61052 52.4029 6.61052 55.2335C6.61052 56.9589 7.23004 58.2019 7.78327 58.8221C8.47161 57.3724 9.43785 56.0605 10.2664 55.1646C11.3015 53.8526 12.334 52.6096 12.334 49.9884C12.334 49.5391 12.334 49.3324 12.2652 48.5386C11.6788 51.1956 10.4041 53.577 8.88717 55.3024C9.99108 53.0946 11.1281 51.0221 11.6457 48.4697ZM11.3703 27.553C11.3703 29.2095 13.6444 30.5903 13.6444 34.1101C13.6444 37.2852 11.7833 40.1847 9.36901 41.4277C9.50668 41.0831 9.57552 40.6671 9.57552 40.3225C9.57552 37.9054 8.19627 35.4909 8.19627 32.9717C8.19627 30.4525 9.30018 28.1733 11.4366 27.1395C11.3678 27.2774 11.3678 27.4152 11.3678 27.553H11.3703ZM18.162 61.5838C17.749 62.5511 16.5406 63.1024 15.4392 63.1024C14.2665 63.1024 13.0963 62.4822 12.6807 61.5838C12.4742 62.7579 11.7145 63.932 11.7145 64.6568C11.7145 64.8993 11.7145 65.0371 11.8522 65.175C11.921 64.8993 12.1963 64.5547 12.7496 64.5547C13.2314 64.5547 13.7158 64.9682 13.7158 65.5221C13.7158 66.2801 13.0963 66.9029 12.0612 66.9029C10.3378 66.9029 8.61438 65.42 8.61438 62.2091C8.61438 59.4474 10.0625 57.0329 13.9911 54.2712C14.9574 57.2396 14.9905 60.7594 18.162 61.5889V61.5838ZM11.3703 33.3852C11.197 31.6241 10.9905 30.0365 10.682 28.8649C10.4066 29.8323 10.3378 31.4199 10.3378 32.109C10.3378 33.6966 10.5443 35.5598 10.8885 38.1837C10.269 36.1137 9.78457 33.6966 9.78457 32.109C9.78457 30.9349 9.92224 29.3473 10.1287 28.6582C9.16251 29.8323 8.7495 31.351 8.7495 32.9717C8.7495 35.4909 10.1976 37.8391 10.1287 40.3914C12.1275 38.666 13.0937 36.5272 13.0937 34.1101C13.0937 32.3847 12.4054 30.9349 11.1638 28.8649C11.4392 29.9012 11.819 32.2826 11.8522 33.3852C11.8879 34.3857 11.7833 35.8355 11.6457 36.5272C11.5768 35.4577 11.4723 34.3883 11.3703 33.3852ZM13.1983 56.1651C11.6125 58.304 10.682 61.3081 10.3378 63.5517C10.1313 61.0325 11.0261 58.4086 12.6144 55.9941C10.4092 57.5817 9.16761 59.9988 9.16761 62.2066C9.16761 65.6242 11.5105 67.0382 12.8898 66.1423C11.9924 66.418 11.1995 65.7977 11.1995 64.6926C11.1995 63.2786 12.6119 62.1376 12.6119 58.3423C12.5431 61.4485 13.8535 62.5537 15.4392 62.5537C16.199 62.5537 16.9561 62.1734 17.2672 61.8645C15.5438 61.2086 14.5444 59.3785 13.9223 56.1345C13.4048 58.1355 14.2665 60.7594 15.3704 61.7267C13.9223 61.2443 13.0249 58.5847 13.1983 56.1702V56.1651ZM22.2309 76.288C18.9549 77.7377 16.7139 78.7051 14.5418 78.7051C12.1275 78.7051 10.8885 77.5999 10.8885 75.8745V72.5947C10.8885 71.4895 11.6814 70.7647 13.0249 70.7647C13.5756 70.7647 14.06 70.9025 14.4042 71.0403C15.0594 70.2823 15.9568 69.7973 16.9204 69.7973C18.0244 69.7973 18.7815 70.3486 18.7815 71.316C18.7815 71.8673 18.5393 72.3854 18.0244 72.6279C19.1614 72.1455 19.9543 71.7652 21.1959 71.2139C24.505 69.7284 30.022 67.6584 33.9175 67.6584C37.8131 67.6584 43.3301 69.7284 46.6392 71.2139C47.8808 71.7652 48.6737 72.1455 49.8107 72.6279C49.2932 72.3854 49.051 71.8698 49.051 71.316C49.051 70.3486 49.8107 69.7973 50.9121 69.7973C51.8783 69.7973 52.7732 70.2797 53.4284 71.0403C53.7726 70.9025 54.257 70.7647 54.8076 70.7647C56.1512 70.7647 56.9441 71.4895 56.9441 72.5947V75.8745C56.9441 77.5999 55.7025 78.7051 53.2907 78.7051C51.1186 78.7051 48.8776 77.7377 45.6016 76.288C41.395 74.4248 38.0859 72.975 33.915 72.975C29.7441 72.975 26.4349 74.4248 22.2284 76.288H22.2309ZM21.4024 71.732C18.5062 73.0439 16.2321 74.0087 14.1288 74.0087C12.5074 74.0087 11.8547 73.5595 11.4392 73.146V75.872C11.4392 77.2528 12.5074 78.1487 14.5418 78.1487C16.5763 78.1487 18.7484 77.217 22.0219 75.7673C26.4349 73.7994 29.7441 72.4186 33.915 72.4186C38.0859 72.4186 41.395 73.7994 45.8081 75.7673C49.0841 77.217 51.3251 78.1487 53.2882 78.1487C55.2512 78.1487 56.3908 77.2502 56.3908 75.872V73.146C55.9778 73.5595 55.3226 74.0087 53.7012 74.0087C51.5979 74.0087 49.3238 73.0414 46.4276 71.732C42.912 70.1444 37.4638 68.2123 33.9124 68.2123C30.3611 68.2123 24.9155 70.1444 21.3973 71.732H21.4024ZM11.5768 72.1812C11.5768 73.0439 12.8872 73.5263 14.1288 73.5263C15.2327 73.5263 16.7496 73.1817 17.8867 72.6993C16.9893 72.9418 16.0256 72.5258 15.1639 72.0434C14.371 71.5942 13.647 71.2496 12.9586 71.2496C12.0612 71.2496 11.5794 71.732 11.5794 72.1812H11.5768ZM53.1531 34.4215C53.1531 37.3209 54.0505 39.1153 54.0505 42.0837C52.1894 42.0837 51.6361 42.635 51.6361 43.7402C51.6361 44.8453 52.3602 45.4656 54.1193 45.4656C53.8439 55.9226 50.8101 60.0651 46.6724 62.4822C43.019 64.4833 38.4683 65.2081 33.9175 67.6252C29.3668 65.2081 24.8161 64.4833 21.1627 62.4822C17.025 60.0651 13.9911 55.9252 13.7158 45.4656C15.4749 45.4656 16.199 44.8453 16.199 43.7402C16.199 42.635 15.6483 42.0837 13.7846 42.0837C13.7846 39.1153 14.682 37.3209 14.682 34.4215C14.682 32.765 14.2002 30.3479 12.4054 27.9333L13.1626 26.4836C13.9911 26.7592 14.8529 26.5525 15.4035 26.0012C15.8854 25.5188 16.0919 24.725 15.8522 23.8623L17.3691 23.0328C19.8523 25.381 22.6439 26.7592 25.5732 26.7592C27.0213 26.7592 29.1577 26.4836 31.3656 25.2406L33.9175 28.7603L36.4695 25.2406C38.6748 26.4836 40.8138 26.7592 42.2619 26.7592C45.1912 26.7592 47.9853 25.3784 50.4659 23.0328L51.9829 23.8623C51.7407 24.725 51.9472 25.5188 52.4316 26.0012C52.9822 26.5525 53.8439 26.7592 54.6725 26.4836L55.4322 27.9333C53.64 30.3504 53.1581 32.765 53.1581 34.4215H53.1531ZM12.6119 74.8025L13.0249 74.9072V76.875C12.8184 76.8061 12.7139 76.7704 12.6119 76.7015V74.8025ZM16.7828 43.4645H28.2629C28.3317 42.9821 28.4006 42.4972 28.4006 41.9458C28.4006 41.2899 28.3317 40.6007 28.0564 39.909L28.885 38.9085C29.1603 38.9443 29.4713 38.9774 29.7824 38.9774C31.1259 38.9774 32.6097 38.5971 33.5734 37.8723V29.3116L31.2304 25.9986C29.4382 26.8945 27.4394 27.3106 25.5758 27.3106C22.4731 27.3106 19.7146 25.8965 17.3029 23.6862L16.4412 24.1354C16.5457 24.9981 16.2678 25.8276 15.7528 26.3432C15.1664 26.9302 14.3047 27.2059 13.443 27.0323L13.03 27.8619C14.6158 30.1386 15.2353 32.5557 15.2353 34.2811C15.2353 36.4889 14.4067 39.7355 14.4067 41.5298C15.8548 41.6676 16.7165 42.3236 16.7853 43.4619L16.7828 43.4645ZM14.3353 77.1507L13.9911 77.115L13.7158 76.1833L13.5781 75.5631H13.5093L13.647 76.3901V77.046L13.3028 76.9771V74.9761L13.647 75.0118L13.9223 75.8413L14.06 76.4615H14.1288L13.9911 75.632V75.0118H14.3353V77.1507ZM18.7484 63.4496C21.5757 63.4496 24.1608 65.2107 28.6428 66.5558C26.644 68.2123 24.5739 69.0418 22.5751 69.0418C19.1283 69.0418 16.9204 66.5558 15.5769 66.9361C15.9899 67.005 16.2321 67.3164 16.2321 67.7299C16.2321 68.248 15.7834 68.5569 15.2327 68.5569C14.5444 68.5569 13.9223 68.0387 13.9223 67.1428C13.9223 65.2439 15.9899 63.4496 18.7484 63.4496ZM28.0921 45.1925C28.0921 44.7432 28.1609 44.3298 28.1966 44.0184H16.7853C16.7165 45.0189 16.0613 45.8127 14.3379 45.9505C14.5444 55.407 17.7159 59.8609 21.5094 61.9998C25.0939 64.0009 29.8512 64.8636 33.5759 66.7294V51.336C28.8875 49.7484 28.0946 47.8852 28.0946 45.1925H28.0921ZM18.5419 65.1086C20.8874 65.1086 23.9543 66.4894 26.7128 66.4894C24.3674 65.7646 21.0939 63.9345 18.7484 63.9345C17.025 63.9345 14.473 64.9708 14.473 67.1786C14.473 67.2832 14.5087 67.49 14.5418 67.5921C14.6107 66.7651 15.1613 66.418 16.0587 66.418C17.5757 66.418 19.7121 68.5237 22.5751 68.5237C23.7121 68.5237 24.9206 68.248 26.2284 67.6278C23.883 67.6967 21.2978 67.8345 18.5393 66.3159C19.8498 66.8672 21.9173 67.1454 23.3654 67.1454C23.7784 67.1454 25.8129 67.1097 26.2259 67.0407C22.0193 66.7651 19.503 64.9708 16.4692 65.4532C16.951 65.2464 17.7796 65.1086 18.5368 65.1086H18.5419ZM14.8197 75.3257L14.4755 75.3615V75.0169C14.7177 75.0169 15.3041 74.948 15.6126 74.8791V75.2594C15.6126 75.2594 15.3016 75.2951 15.2327 75.2951V77.1252L14.8197 77.1609V75.3308V75.3257ZM16.923 70.2874C16.1658 70.2874 15.3016 70.7366 14.8885 71.2879C15.6126 71.7014 16.5788 72.2552 17.3717 72.2552C17.8892 72.2552 18.2334 71.9107 18.2334 71.3236C18.2334 70.7034 17.6827 70.2874 16.923 70.2874ZM15.7503 74.8433C16.0944 74.7744 16.3698 74.7055 16.6477 74.6366V74.9812L16.1658 75.0501V75.6703L16.5788 75.5325V75.8771L16.1658 75.946V76.6708C16.2703 76.6351 16.51 76.5662 16.6477 76.4973V76.8419C16.4055 76.9108 15.9925 77.0154 15.7503 77.0486V74.8408V74.8433ZM22.5751 22.9332C22.5751 23.7628 22.0933 24.5897 21.6089 25.0032C21.4712 24.1073 20.0231 22.9332 18.2309 22.6576C16.9893 21.6902 16.3341 19.8959 16.3341 18.3773C16.3341 15.4446 18.5062 13.9948 19.5056 11.7156C19.1614 11.9223 18.7127 11.958 18.3685 11.958C17.2646 11.958 16.3698 11.1643 16.3698 9.99017C16.3698 8.54042 17.5425 7.40206 19.2659 7.40206C21.3335 7.40206 23.5413 9.19638 23.5413 13.4078C23.5413 15.5467 22.9218 18.584 20.9205 20.8633C22.0244 21.1389 22.5751 22.0374 22.5751 22.9332ZM17.7822 21.3788C17.5068 16.5472 19.7478 15.6488 20.6426 12.5783C20.1251 15.8223 18.0906 16.7208 18.4017 21.3457C21.8842 15.5135 21.9173 12.4073 21.5732 10.3705C22.5037 12.4404 22.055 15.9959 18.9192 21.726C20.0231 21.5192 20.918 21.8638 21.2978 22.6933C20.6783 22.2109 19.8166 22.0731 19.0569 22.4177C20.4693 22.729 21.1602 23.2804 21.7108 24.1431C21.9173 23.9006 22.0907 23.4871 22.0907 22.9358C22.0907 22.0374 21.4712 21.3482 20.2296 21.0726C22.2972 18.5865 23.0569 15.8274 23.0569 13.4103C23.0569 9.54605 21.0582 7.88701 19.2659 7.88701C17.8178 7.88701 16.9204 8.74971 16.9204 9.99272C16.9204 10.8912 17.5757 11.5446 18.3685 11.5446C18.8504 11.5446 19.3348 11.4756 19.6101 11.2C18.8529 11.2689 18.5062 10.8197 18.5062 10.3705C18.5062 9.95698 18.7815 9.54095 19.3348 9.54095C19.8523 9.54095 20.2322 9.95443 20.2322 10.5772C20.2322 13.0632 16.8542 15.1332 16.8542 18.3773C16.8542 19.2757 17.1295 20.5519 17.7847 21.3788H17.7822ZM16.8516 76.7755V74.5651L17.127 74.4962C17.6088 74.3584 17.8841 74.6009 17.8841 74.9454C17.8841 75.2211 17.7465 75.4636 17.54 75.6014L18.1263 76.3595L17.7133 76.4973L17.4023 76.0149L17.3335 75.7392L17.1958 75.775V76.6734L16.8516 76.778V76.7755ZM17.54 75.0501C17.54 74.8433 17.4023 74.7055 17.1958 74.7744V75.4636C17.4711 75.3947 17.54 75.1879 17.54 75.0501ZM23.7121 32.0452C23.2991 32.0452 22.9524 31.7338 22.8836 31.4582C22.1238 31.4582 21.3667 31.596 20.8848 31.7006L22.6771 37.2929H23.1589C23.1589 37.9846 22.3304 38.6048 20.5381 38.6048C18.7458 38.6048 18.0549 37.9846 18.0549 37.2929H18.468L20.1225 31.9074L19.8115 32.012L19.5693 31.2871C20.6732 30.9426 21.7057 30.7358 22.8785 30.6669C23.0162 30.3223 23.3603 30.1156 23.707 30.1156C24.0538 30.1156 24.3954 30.3223 24.4999 30.6669C25.6727 30.7358 26.7409 30.9426 27.8448 31.2871L27.6026 32.012L27.2916 31.9074L28.9461 37.2929H29.3592C29.3592 37.9846 28.5994 38.6048 26.876 38.6048C25.1526 38.6048 24.2552 37.9846 24.2552 37.2929H24.737L26.5293 31.7006C26.0806 31.596 25.3234 31.4582 24.5305 31.4582C24.4617 31.7338 24.1175 32.0452 23.702 32.0452H23.7121ZM18.4374 75.0501C18.4374 74.8765 18.5419 74.7744 18.7127 74.7744C18.8835 74.7744 18.988 74.8791 18.988 75.0501C18.988 75.2211 18.8835 75.3257 18.7127 75.3257C18.5419 75.3257 18.4374 75.2211 18.4374 75.0501ZM20.3341 37.2903V32.354L18.9218 37.2903H20.3341ZM19.4724 75.8439L19.8166 73.4625L20.4361 73.1869L20.7803 75.3257L20.4361 75.4636L20.3673 74.9812L19.9543 75.1547L19.8854 75.6729L19.4724 75.8464V75.8439ZM27.9544 56.4127C27.7479 56.5505 27.4037 56.6883 26.8862 56.6883C25.818 56.6883 25.1628 56.1013 25.1628 54.6873C25.1628 53.4111 25.1628 52.9951 25.3004 50.6137H23.164C23.164 51.8899 23.1997 52.9593 23.0264 54.1334C22.853 55.2718 22.4068 56.0324 21.4406 56.8593L20.6477 55.9966C21.3361 55.4785 21.8205 55.1339 21.9913 53.9956C22.1646 52.8904 22.1289 51.8567 22.1289 50.6137C20.9562 50.6137 20.5763 51.1318 20.5763 52.2013L19.5081 51.9256C19.7146 50.2002 20.6452 49.6489 22.2309 49.6489H27.8499V50.6162H26.2973C26.1596 53.1712 26.1928 53.4111 26.1928 54.4116C26.1928 55.4121 26.6415 55.6546 27.1921 55.6546C27.5363 55.6546 27.7097 55.5857 27.9519 55.4811V56.4127H27.9544ZM20.301 74.6366L20.2322 74.1542L20.1633 73.6361L20.0945 73.6718L19.9568 74.777L20.301 74.6392V74.6366ZM20.7497 32.3566V37.2929H22.1978L20.7497 32.3566ZM21.2672 72.8065V74.463C21.2672 74.6009 21.3361 74.6698 21.4049 74.6698C21.5426 74.6698 21.6802 74.532 21.6802 74.2563V72.5998L22.0933 72.4263V74.0496C22.0933 74.7387 21.6802 75.0858 21.3335 75.0858C21.0582 75.0858 20.9205 74.8791 20.9205 74.6034V72.9469L21.2647 72.8091L21.2672 72.8065ZM22.44 72.2884L22.7842 72.1506V74.1185L23.1972 73.9117V74.292L22.4374 74.6034V72.291L22.44 72.2884ZM25.0608 19.6203C25.0608 20.2405 24.579 20.7254 23.8192 20.7254C23.1997 20.7254 22.7842 20.312 22.7153 19.6203C23.0595 19.8959 23.8192 19.6892 23.9569 20.2405C24.0257 19.6892 24.7166 19.6892 24.992 19.2731C25.0608 19.411 25.0608 19.4799 25.0608 19.6177V19.6203ZM25.4738 20.7254C25.4738 21.486 24.7855 21.8995 23.8881 21.8995C23.1997 21.8995 22.7842 21.6239 22.7153 20.7943C23.1283 21.2078 24.0946 20.9322 24.2322 21.555C24.2322 20.8658 25.1985 20.7943 25.405 20.3809C25.4738 20.4498 25.4738 20.5876 25.4738 20.7254ZM23.8192 19.5513C23.2685 19.5513 22.853 19.1379 22.853 18.7244C22.853 18.5865 22.853 18.5176 22.9218 18.3798C23.1972 18.7244 23.8192 18.5865 23.8881 19.2782C23.8192 18.5865 24.6478 18.4487 24.7855 18.3109C24.8212 19.0026 24.4413 19.5539 23.8192 19.5539V19.5513ZM26.0933 21.8281C26.0933 22.7265 25.1271 23.2778 24.3011 23.2778C23.6816 23.2778 23.266 22.9332 23.1283 22.3105C23.2329 22.4151 23.4725 22.3794 24.1634 22.3794C24.4387 22.3794 24.7829 22.3794 24.9231 22.7239V22.4483C24.9231 21.7591 25.8894 21.5524 25.9582 21.1364C26.027 21.412 26.0959 21.6188 26.0959 21.8255L26.0933 21.8281ZM30.7129 22.7265C31.5415 22.7265 31.8856 23.2089 32.0233 24.383C30.9882 24.383 27.9544 25.9706 25.818 25.9706C24.2322 25.9706 23.3348 25.4192 23.1972 23.3467C23.8167 23.8291 24.7472 23.9669 25.6115 23.9669C27.5414 23.9669 29.7135 22.7239 30.7129 22.7239V22.7265ZM23.8192 18.4462C23.6127 18.3773 23.3374 18.1016 23.3374 17.6856C23.3374 17.2695 23.6127 16.7897 23.9569 16.4426C23.9569 16.9939 24.2322 17.3384 24.2322 17.7545C24.2322 18.099 23.9569 18.3747 23.8192 18.4436V18.4462ZM23.3374 74.2206L23.6127 71.8035L24.1634 71.5967L24.6452 73.6667L24.3011 73.8045L24.2322 73.391L23.7835 73.5646L23.7478 74.047L23.3348 74.2206H23.3374ZM23.8192 73.1843L24.1634 73.0465L24.0257 72.5283L23.9569 72.0102L23.8881 72.0459V72.5641L23.8192 73.1843ZM24.5764 11.8866C24.9206 11.8866 25.3336 11.6798 25.5426 10.7814C25.4738 11.3327 25.4738 11.8866 25.4738 12.369C25.4738 13.7498 25.6115 14.9239 25.6803 15.4063C25.7491 15.613 25.7491 15.8887 25.7491 16.0954C25.7491 16.856 25.4738 17.2006 25.1296 17.3384C24.7166 15.8887 24.5101 14.1633 24.5101 12.8514C24.5101 12.5068 24.5101 12.1622 24.579 11.884L24.5764 11.8866ZM24.6121 24.2783V25.3146C24.7498 25.3835 25.0251 25.4524 25.2316 25.4524V25.2457H24.9563V24.3141L24.6121 24.2783ZM39.0572 5.05388C40.7806 5.05388 42.9196 6.71037 43.195 11.2663C42.5754 11.2663 42.3664 10.784 42.2976 10.0233C41.8845 7.12385 40.3676 5.74302 39.2637 5.74302C37.1273 5.74302 38.8507 9.12491 36.6429 9.60731C36.6429 10.1586 36.5052 10.8503 36.2299 10.8503C35.8857 10.8503 35.748 10.2301 35.6104 9.74514C35.6104 10.5057 35.4039 11.126 35.1285 11.126C34.922 11.126 34.7155 10.5057 34.5779 9.95188C34.5779 10.641 34.2337 11.3327 33.8895 11.3327C33.6142 11.3327 33.27 10.6436 33.27 9.95188C33.1323 10.5032 32.9258 11.126 32.7193 11.126C32.444 11.126 32.2375 10.5057 32.2375 9.74514C32.0998 10.2275 31.9621 10.8503 31.618 10.8503C31.3426 10.8503 31.2049 10.1612 31.2049 9.60731C28.9997 9.12491 30.7231 5.74302 28.5841 5.74302C27.4802 5.74302 25.9633 7.12385 25.5503 10.0233C25.4815 10.784 25.275 11.2663 24.6529 11.2663C24.9282 6.71037 27.0672 5.05388 28.7906 5.05388C31.3426 5.05388 30.0322 8.22903 31.2049 8.22903C31.6868 8.22903 32.1023 7.67772 32.5154 6.98603C32.4465 7.12385 32.4465 7.26168 32.4465 7.39951C32.4465 7.95082 32.9972 8.29794 33.8946 8.29794C34.8608 8.29794 35.4115 7.95337 35.4115 7.39951C35.4115 7.26168 35.4115 7.12385 35.3427 6.98603C35.7557 7.67517 36.0999 8.22903 36.6531 8.22903C37.757 8.22903 36.5154 5.05388 39.0674 5.05388H39.0572ZM24.7855 73.0822C25.0608 73.1511 25.303 73.0822 25.303 72.8755C25.303 72.462 24.6835 72.3931 24.6835 71.7703C24.6835 71.3568 25.0633 71.0786 25.5452 71.1501L25.614 71.5304C25.3387 71.4615 25.0965 71.4946 25.0965 71.7728C25.0965 72.1174 25.7517 72.2221 25.7517 72.8423C25.7517 73.3247 25.2699 73.6003 24.8543 73.4625L24.7855 73.0822ZM25.2342 37.2903H26.6822V32.354L25.2342 37.2903ZM25.2699 17.8923C25.614 17.7545 25.8894 17.4099 25.8894 16.4426C26.3024 18.3058 26.7179 19.5488 27.1998 20.7229C27.544 21.6213 27.8881 22.1726 27.8881 22.4483C27.8881 22.655 27.8193 22.7239 27.6816 22.7929C26.6466 21.5499 25.8205 19.6866 25.2673 17.8923H25.2699ZM25.3744 24.3472V25.4524H25.7186V24.3472H25.3744ZM25.9251 24.3472V25.4856L26.3738 25.4499C26.6491 25.4141 26.7868 25.2763 26.7868 25.0696C26.7868 24.8628 26.6491 24.8271 26.5114 24.8271C26.6491 24.8271 26.7536 24.6893 26.7536 24.5514C26.7536 24.3447 26.5803 24.2758 26.3049 24.309L25.9251 24.3447V24.3472ZM27.0621 9.88552C26.9576 10.715 26.5803 11.0596 26.027 11.0596C26.0959 9.8166 26.44 8.64251 26.7842 7.88446C27.2661 6.8482 28.0946 6.22797 28.5076 6.22797C28.6453 6.22797 28.783 6.29689 28.783 6.43471C28.783 6.57254 28.5765 6.64146 28.3011 6.91711C27.7505 7.46842 27.2329 8.50469 27.0596 9.88552H27.0621ZM26.027 11.6109C26.3712 11.6109 26.7154 11.4042 26.9244 10.5747C26.8556 11.126 26.8556 11.6109 26.8556 12.0933V13.4742C26.8556 13.9565 26.7868 14.5793 26.1673 14.6482C26.0296 13.5431 26.0296 12.5094 26.0296 11.6109H26.027ZM26.2335 15.1996C26.6466 15.1996 26.9933 14.855 26.9933 14.0255C27.3374 17.1317 28.166 18.8571 28.579 20.0312C28.7855 20.6514 28.9232 21.1364 28.9232 21.4809C28.9232 21.6877 28.8544 21.8255 28.6479 21.8944C27.6128 20.2379 26.5803 17.683 26.2335 15.1996ZM26.44 24.6229C26.44 24.7276 26.3712 24.7965 26.2667 24.7965V24.4519C26.3712 24.4519 26.44 24.5208 26.44 24.6255V24.6229ZM26.44 25.141C26.44 25.2789 26.3712 25.3478 26.2667 25.3478V24.9343C26.3712 24.9343 26.44 25.0032 26.44 25.141ZM26.3024 71.8035C26.3024 71.6299 26.4069 71.5278 26.5777 71.5278C26.7485 71.5278 26.8531 71.6325 26.8531 71.8035C26.8531 71.9745 26.7485 72.0791 26.5777 72.0791C26.4069 72.0791 26.3024 71.9745 26.3024 71.8035ZM26.9219 25.3478L27.6102 25.2099V25.0032L27.2661 25.0721V24.7607L27.5771 24.725V24.5183L27.2661 24.5872V24.3115L27.5771 24.2758V24.069L26.9219 24.2069V25.3452V25.3478ZM28.5433 37.2903L27.0953 32.354V37.2903H28.5433ZM27.4063 11.542C27.7505 11.542 28.0946 11.3353 28.3037 10.4368C28.2348 11.0571 28.166 11.542 28.166 11.8866C28.166 12.369 28.2348 12.9918 28.2348 13.3363C28.2348 13.8876 28.166 14.4415 27.5465 14.5793C27.4088 13.8187 27.34 13.1296 27.34 12.4404C27.34 12.0959 27.34 11.8202 27.4088 11.542H27.4063ZM28.3725 9.88552C28.2348 10.715 28.0283 10.9907 27.4751 10.9907C27.6128 9.19638 27.957 8.22903 28.579 7.33315C28.7167 7.12641 28.9232 6.91966 29.1297 6.91966C29.1985 6.91966 29.3362 6.98858 29.3362 7.12641C29.3362 7.26423 29.2674 7.33315 29.1985 7.47098C28.7167 8.0912 28.5102 9.12746 28.37 9.88807L28.3725 9.88552ZM27.4751 72.633L27.855 70.3205L28.4414 70.147L28.7855 72.2527L28.4414 72.3573L28.3725 71.9438L27.9927 72.0485L27.9238 72.4977L27.4751 72.6355V72.633ZM27.544 15.0617C27.957 14.9928 28.2323 14.6482 28.3037 13.8187C28.5102 15.8198 29.2011 17.8234 29.6829 19.1328C29.8894 19.6841 29.9583 20.1001 29.9583 20.4447C29.9583 20.6514 29.8894 20.7892 29.7518 20.9271C28.7167 19.4773 27.8218 16.7157 27.5465 15.0592L27.544 15.0617ZM28.681 24.8986L28.4057 24.4851C28.5102 24.4493 28.579 24.3115 28.579 24.2094C28.579 24.0027 28.4057 23.8291 28.1303 23.898L27.7505 24.0027V25.1768L28.0946 25.0721V24.6229L28.3011 25.0032L28.681 24.8986ZM28.0258 71.6656L28.3011 71.5967L28.2323 70.9765L28.1966 70.5273L28.1278 70.563L28.0921 71.0122L28.0232 71.6682L28.0258 71.6656ZM28.2323 24.2426C28.2323 24.3804 28.1966 24.4493 28.0946 24.4851V24.0716C28.1992 24.0359 28.2323 24.1405 28.2323 24.2452V24.2426ZM28.5765 24.0001L28.8187 23.8955V24.8628L29.1628 24.7582V23.7908L29.3693 23.7551V23.5126L28.5765 23.7551V23.9976V24.0001ZM29.7135 39.5313C29.507 39.5313 29.3337 39.4956 29.1272 39.4624L28.6785 40.0137C28.8161 40.6339 28.9538 41.1878 28.9538 41.9458C28.9538 42.9132 28.6785 44.2226 28.6785 45.0521C28.6785 47.607 29.298 49.2635 33.9175 50.7822C38.5371 49.2635 39.1566 47.607 39.1566 45.0521C39.1566 44.2226 38.8813 42.9132 38.8813 41.9458C38.8813 41.1878 39.019 40.6339 39.1566 40.0137L38.7079 39.4624C38.5014 39.4981 38.3281 39.5313 38.1216 39.5313C36.6735 39.5313 35.2254 39.2556 33.915 38.3572C32.6046 39.2556 31.1565 39.5313 29.7084 39.5313H29.7135ZM28.7141 10.9881C29.1272 10.9881 29.4713 10.6436 29.6115 10.0208C29.5427 10.5721 29.5427 10.9881 29.5427 11.4016C29.5427 12.0219 29.6115 12.5757 29.6115 12.9203C29.6115 13.5405 29.1985 13.9565 28.783 13.9565C28.7141 13.2649 28.7141 12.7135 28.7141 12.1622V10.9881ZM29.3337 8.43322C29.4713 8.43322 29.609 8.63996 29.609 9.12236C29.609 9.74259 29.4025 10.4343 28.7804 10.4343C28.9869 8.70888 29.1246 8.43322 29.3311 8.43322H29.3337ZM28.8518 14.5768C29.196 14.5079 29.609 14.3011 29.6804 13.4716C29.8181 15.4727 30.3687 17.1981 30.7155 18.4411C30.922 19.0613 31.0596 19.4773 31.0596 19.8219C31.0596 19.9597 30.9908 20.1665 30.8531 20.2354C29.8869 18.7856 29.1297 16.2307 28.8544 14.5742L28.8518 14.5768ZM29.9557 71.9745C29.4739 72.1812 28.9207 72.0102 28.9207 70.974C28.9207 70.2159 29.3337 69.7309 29.8869 69.7999V70.1444C29.4739 70.1444 29.3005 70.4201 29.3005 70.974C29.3005 71.5942 29.6115 71.8035 29.9557 71.6631V71.9745ZM31.6791 73.8734C32.5765 73.8734 33.1961 74.1491 33.8844 74.5626C34.5728 74.1491 35.2636 73.8734 36.1611 73.8734C37.8156 73.8734 38.8507 74.703 38.8507 75.8056C38.8507 76.704 38.091 77.2553 37.3338 77.2553C36.7143 77.2553 36.2299 76.9797 36.2299 76.4258C36.2299 76.0812 36.4364 75.8056 36.8494 75.8056C37.2624 75.8056 37.6091 76.288 37.3312 76.7729C37.8819 76.7729 38.2975 76.3595 38.2975 75.7724C38.2975 74.9097 37.4689 74.3584 36.2987 74.3584C35.4702 74.3584 34.6441 74.634 34.3 74.9097C34.9883 75.5988 35.4727 76.2905 35.4727 77.1175C35.4727 78.2227 34.6441 78.8429 33.887 78.8429C33.1298 78.8429 32.3012 78.2227 32.3012 77.1175C32.3012 76.288 32.783 75.5988 33.4739 74.9097C33.1298 74.634 32.37 74.3584 31.544 74.3584C30.3024 74.3584 29.4764 74.9097 29.4764 75.7724C29.4764 76.3595 29.8894 76.7729 30.4427 76.7729C30.1673 76.2905 30.5115 75.8056 30.9245 75.8056C31.3375 75.8056 31.544 76.0812 31.544 76.4258C31.544 76.9771 31.0622 77.2553 30.4401 77.2553C29.6804 77.2553 28.9232 76.704 28.9232 75.8056C28.9232 74.7004 29.9583 73.8734 31.6817 73.8734H31.6791ZM29.5427 23.4488L29.3005 24.725L29.5759 24.6204L29.6115 24.4136L29.8537 24.309L29.8894 24.4825L30.2336 24.3779L29.9583 23.3084L29.5453 23.4463L29.5427 23.4488ZM30.3024 46.0909C29.8894 46.2645 29.405 45.8841 29.405 45.2639C29.405 44.9883 29.4407 44.7126 29.5784 42.2266H29.6829V44.5722C30.1648 44.779 30.6492 45.1925 30.6492 45.6774C30.6492 45.8842 30.5115 45.9888 30.305 46.0909H30.3024ZM31.131 46.8515C30.4758 47.3339 30.0271 47.1961 29.5453 46.6448C30.0271 46.6448 30.5115 46.1624 30.9933 46.5758C30.6492 46.2313 30.9933 45.8152 31.0622 45.4707L30.3738 43.4696H30.4784L31.4089 45.4707C31.6842 45.9531 31.7531 46.4023 31.1336 46.8515H31.131ZM29.7186 23.5892L29.8232 24.1405L29.6498 24.2094L29.7186 23.5892ZM30.7868 10.784C30.7868 11.6798 30.8557 12.3715 30.8557 12.785C30.8557 13.4052 30.5115 13.8213 30.2362 13.8213C30.0985 12.9228 30.0297 12.1648 30.0297 11.3353C30.0297 10.299 30.1673 10.0923 30.3738 10.0923C30.5803 10.0923 30.7868 10.299 30.7868 10.7814V10.784ZM31.0622 22.3105L31.131 21.8281L31.544 21.1389L30.7843 21.7591L30.5778 22.1037H30.4401L30.5089 21.6213L31.0596 21.1389L30.3713 21.3457L30.2336 21.5524H30.0271L30.3024 21.1389L31.6817 20.5876L31.8882 19.0689C31.957 19.1379 32.0259 19.1379 32.1635 19.1379C32.37 19.1379 32.4389 19.1379 32.5077 19.0689L32.1635 20.5876L33.0609 21.1389L33.1986 21.6902H33.0609L32.7168 21.3457L32.0972 21.1389L31.4777 21.8995L31.2024 22.313H31.0647L31.0622 22.3105ZM30.0959 71.9413L30.3713 69.6646L30.9908 69.5268L31.4038 71.6656L30.9908 71.7346L30.922 71.2522L30.5421 71.3568L30.4733 71.8392L30.0934 71.9438L30.0959 71.9413ZM30.2336 14.3011C30.5089 14.3011 30.8531 14.0255 30.922 13.3338C30.9908 14.0229 31.2661 15.197 31.2661 15.6794C31.2661 16.1618 31.0596 16.5778 30.7843 16.5778C30.5089 15.9576 30.3713 14.9903 30.2336 14.3011ZM30.5778 24.2758C30.9576 24.138 31.1285 23.9644 31.1285 23.5866C31.1285 23.2421 30.922 23.1042 30.5778 23.1732L30.2336 23.2421V24.3804L30.5778 24.2758ZM32.0947 47.5381C31.4064 48.2961 30.8531 48.1583 30.4401 47.607C30.8531 47.607 31.4063 46.9179 31.8194 47.2624C31.4063 46.9179 32.0947 46.2951 32.0947 45.8816C32.6454 46.364 32.6454 46.9179 32.0947 47.5381ZM30.7843 23.653C30.7843 23.9644 30.7155 24.0333 30.5778 24.1022V23.3084C30.7155 23.3084 30.7843 23.3084 30.7843 23.653ZM30.8531 70.9025L30.7155 69.8662H30.6466L30.5778 70.9714L30.8531 70.9025ZM32.2324 49.677L33.6116 48.6407L33.0609 48.2272C32.5791 48.7096 32.0947 48.8475 31.544 48.434C31.957 48.2961 32.3726 47.5355 32.8544 47.9516C32.4414 47.4692 32.9921 46.9153 32.9233 46.4329C33.4051 46.7086 33.6116 47.5381 33.1986 47.9516L33.7493 48.3651V46.0883C33.0609 46.0194 32.3012 45.537 32.1635 44.7764L30.7155 42.6375H30.8531L32.4389 44.6386C32.9895 44.8453 33.9226 45.0521 33.9226 45.537C33.9226 45.0546 34.8532 44.8453 35.4039 44.6386L36.9896 42.6375H37.1273L35.6792 44.7764C35.5415 45.537 34.7818 46.0194 34.0935 46.0883V48.3651L34.6441 47.9516C34.2311 47.5381 34.4376 46.7086 34.9195 46.4329C34.8506 46.9153 35.4013 47.4692 34.9883 47.9516C35.4702 47.5381 35.8169 48.2961 36.2987 48.434C35.748 48.8475 35.2636 48.7096 34.7818 48.2272L34.2311 48.6407L35.6792 49.677L35.2662 49.8148L34.0935 48.9853V50.2283L33.9201 50.2972L33.7467 50.2283V48.9853L32.6428 49.8148L32.2298 49.677H32.2324ZM31.8882 17.0602C31.8882 17.3359 32.0259 17.6115 32.3012 17.6115C32.5077 17.6115 32.7142 17.4048 32.8519 17.1291C33.1272 17.4048 33.2649 17.8872 33.2649 18.7856C32.9207 18.7167 32.6454 18.3721 32.6454 17.9561C32.5765 18.5074 32.37 18.7856 32.1635 18.7856C32.0259 18.7856 31.957 18.5789 31.957 18.3032V17.8208C31.8882 18.0965 31.4752 18.4411 31.1285 18.3032C31.335 17.683 31.6103 17.1981 31.8856 17.0602H31.8882ZM33.9226 44.705C33.1298 44.705 32.5103 44.2226 32.37 43.5998L31.1285 41.8055H31.2661L32.6454 43.5998C33.1272 43.8065 33.8181 44.0133 33.9201 44.3604C34.0578 44.0158 34.713 43.8091 35.1948 43.5998L36.5741 41.8055H36.7117L35.4702 43.6687C35.3325 44.22 34.6773 44.705 33.9175 44.705H33.9226ZM32.4389 15.4701C33.1986 15.4701 33.4051 15.7458 33.4051 16.782V17.1955C33.0609 17.1955 32.8544 16.8509 32.7856 16.5064C32.7168 16.9888 32.5103 17.1955 32.3726 17.1955C32.1661 17.1955 32.0972 17.0577 32.0972 16.7131V16.2996C31.8219 16.782 31.5466 16.782 31.3375 16.782C31.6129 15.7458 31.8882 15.4701 32.4414 15.4701H32.4389ZM33.887 11.9504C34.3 11.9504 34.5753 11.5369 34.5753 10.983C34.713 11.5343 34.9883 11.7436 35.1948 11.7436C35.4702 11.7436 35.7455 11.2612 35.7455 10.7074C35.8143 11.1898 36.0897 11.6058 36.4338 11.6058C36.4338 12.3664 36.2962 12.7799 35.952 12.7799C35.7455 12.7799 35.6767 12.4353 35.539 11.8815C35.539 12.4328 35.2637 12.9866 34.9883 12.9866C34.7818 12.9866 34.6441 12.7799 34.5065 12.1571C34.4376 12.7774 34.1623 13.2623 33.887 13.2623C33.6804 13.2623 33.3363 12.7799 33.3363 12.1571C33.1986 12.7774 33.0609 12.9866 32.8544 12.9866C32.5791 12.9866 32.3038 12.4353 32.3038 11.8815C32.1661 12.4328 32.0972 12.7799 31.8907 12.7799C31.5466 12.7799 31.4089 12.3664 31.4089 11.6058C31.6842 11.6058 32.0284 11.1923 32.0972 10.7074C32.0972 11.2587 32.3726 11.7436 32.6479 11.7436C32.8544 11.7436 33.1298 11.5369 33.2674 10.983C33.2674 11.5343 33.5428 11.9504 33.887 11.9504ZM33.9226 43.5998C33.1986 43.5998 32.5791 43.1863 32.4389 42.6324L31.4726 40.9759H31.6103L32.5765 42.4257C33.0584 42.6324 33.8181 42.8392 33.9201 43.2527C34.0578 42.8392 34.7818 42.6324 35.2637 42.4257L36.1611 40.9759H36.2987L35.4013 42.6324C35.1948 43.1837 34.5728 43.5998 33.9201 43.5998H33.9226ZM31.6129 69.417L31.8551 69.3813C32.4057 69.3124 32.7856 69.588 32.7856 70.4175C32.7856 71.2471 32.3726 71.5227 31.8882 71.5916L31.6129 71.6274V69.4196V69.417ZM33.887 14.0204C34.2311 14.0204 34.5753 13.538 34.5753 12.9841C34.713 13.5354 34.8506 13.8111 35.126 13.8111C35.4013 13.8111 35.6078 13.3287 35.6078 12.7059C36.0208 13.3261 36.1585 13.9489 36.1585 14.3624C36.1585 14.8448 36.0208 14.9826 35.8832 14.9826C35.6767 14.9826 35.4013 14.7069 35.3325 14.0842C35.3325 14.8448 35.126 15.1893 34.8506 15.1893C34.713 15.1893 34.5065 14.9137 34.3688 14.4287C34.3688 15.049 34.1623 15.465 33.887 15.465C33.6804 15.465 33.4739 15.0515 33.4739 14.4287C33.3363 14.9111 33.1298 15.1893 32.9921 15.1893C32.7168 15.1893 32.5103 14.8448 32.5103 14.0842C32.4414 14.7044 32.1661 14.9826 31.9596 14.9826C31.8219 14.9826 31.6842 14.8448 31.6842 14.3624C31.6842 13.9489 31.8219 13.3261 32.2349 12.7059C32.2349 13.3261 32.4414 13.8111 32.7168 13.8111C32.9921 13.8111 33.1298 13.5354 33.2674 12.9841C33.2674 13.5354 33.6116 14.0204 33.887 14.0204ZM34.611 5.97784C34.611 6.28923 34.7155 6.56488 34.7155 6.6338C34.7155 6.90945 34.3025 7.1162 33.887 7.1162C33.6116 7.1162 33.1986 6.90945 33.1986 6.70271C33.1986 6.49597 33.4408 6.01357 33.4408 5.59754C33.4408 5.52862 33.4408 5.45971 33.372 5.32188C33.5096 5.42653 33.683 5.45971 33.8538 5.45971C34.0246 5.45971 34.2668 5.39079 34.3357 5.25297C33.5071 5.49544 33.1986 5.01049 33.1298 4.59701C32.8187 4.73483 32.5103 4.63274 32.4414 4.39026C32.3038 4.45918 32.1304 4.49491 31.9927 4.59701C31.8551 4.00996 32.0616 3.87213 32.7856 3.76749C32.6811 3.66284 32.6479 3.52501 32.6479 3.42292C32.6479 3.07835 33.0278 2.90479 33.8895 2.90479C34.2694 2.90479 34.509 3.04261 34.4402 3.21617C34.4402 3.354 34.3713 3.354 34.3713 3.42292C34.82 3.56074 34.9577 3.94105 34.9577 4.32135C34.9577 5.01049 34.6135 5.15087 34.6135 5.97784H34.611ZM32.4389 70.4865C32.4389 69.9351 32.2324 69.6569 31.957 69.7258V71.2445C32.2324 71.2445 32.4389 70.8999 32.4389 70.4865ZM33.9226 42.4946C33.1986 42.4946 32.7856 42.0122 32.6479 41.5273L32.0972 39.9397H32.2018L32.7881 41.3205C33.27 41.5273 33.9252 41.734 33.9252 42.2189C33.9252 41.7365 34.5804 41.5298 34.9934 41.3205L35.6486 39.9397H35.7531L35.2025 41.5273C34.9271 42.0786 34.5829 42.4946 33.9277 42.4946H33.9226ZM32.1992 25.238C32.1992 24.9624 32.4414 24.7199 32.9921 24.4442C32.8544 24.7199 32.7168 24.8577 32.5103 25.0645C32.9233 24.7888 32.8544 24.8577 33.0609 24.7199C32.7856 25.3401 32.5434 25.409 32.4057 25.409C32.2681 25.409 32.1992 25.3401 32.1992 25.2355V25.238ZM35.0597 24.3064C34.7155 24.2375 34.2311 24.1686 33.887 24.1686C33.6116 24.1686 33.1298 24.2375 32.783 24.3064C32.6454 23.8929 32.4389 23.2702 32.4389 22.8567C32.4389 22.3054 32.8519 22.0961 33.887 22.0961C34.9909 22.0961 35.4039 22.3028 35.4039 22.8567C35.4039 23.2702 35.1974 23.8929 35.0597 24.3064ZM32.6811 25.8608C32.6811 25.5851 32.8876 25.2406 33.3694 24.7556C33.2317 25.1691 33.1629 25.3069 33.0252 25.723C33.2317 25.3784 33.3694 25.2406 33.5071 25.0338C33.4382 26.0012 33.1272 26.1722 32.9207 26.1722C32.783 26.1722 32.6785 26.0675 32.6785 25.8608H32.6811ZM34.922 77.115C34.922 76.3543 34.4402 75.7341 33.887 75.2517C33.3363 75.7341 32.8519 76.3569 32.8519 77.115C32.8519 77.9419 33.4026 78.289 33.887 78.289C34.3713 78.289 34.922 77.9445 34.922 77.115ZM33.0609 71.5227V69.246L33.8895 69.2103V69.5548L33.4077 69.5906V70.1776L33.8207 70.1419V70.4865H33.4077V71.1756L33.8895 71.1399V71.4844L33.0609 71.5202V71.5227ZM33.8895 27.3437C33.6142 27.3437 33.4077 27.2059 33.4077 26.7235C33.4077 26.3789 33.4765 26.0675 33.683 25.4473C33.7518 25.723 33.8895 25.9986 33.8895 26.4147C33.8895 26.0012 34.0272 25.7255 34.096 25.4473C34.3025 26.0675 34.3713 26.3789 34.3713 26.7235C34.3713 27.2059 34.1648 27.3437 33.8895 27.3437ZM33.9252 41.4609C33.683 41.4609 33.4077 41.1852 33.4077 40.9096C33.4077 40.565 33.581 40.3583 33.7875 39.8733L33.8564 38.5614H33.994L34.0629 39.8733C34.2694 40.3557 34.4427 40.5625 34.4427 40.9096C34.4427 41.1852 34.1674 41.4609 33.9252 41.4609ZM33.7518 23.3059V23.6862H34.096V23.3059L34.3713 22.581H34.1648L33.9915 23.0991L33.8181 22.581H33.4739L33.7493 23.3059H33.7518ZM33.8895 4.01251C34.0272 4.01251 34.1317 3.9436 34.1317 3.80577C34.1317 3.66794 34.0272 3.59903 33.8895 3.59903C33.7518 3.59903 33.6473 3.66794 33.6473 3.80577C33.6473 3.9436 33.7518 4.01251 33.8895 4.01251ZM34.7181 70.4865L34.5804 69.7948H34.5116L34.5804 70.7621V71.487H34.2362V69.2103L34.6492 69.246L34.9246 70.1419L34.9603 70.6932H34.996L35.0648 70.1419L35.3401 69.3149L35.7531 69.3506V71.5942L35.409 71.5584V70.8336L35.4778 69.8662H35.409L35.2713 70.4865L35.1336 71.0378H34.8583L34.7206 70.4865H34.7181ZM54.4023 27.0323C53.5406 27.2059 52.6789 26.9277 52.0925 26.3432C51.575 25.8251 51.2996 24.9981 51.4041 24.1354L50.5424 23.6862C48.1281 25.894 45.3722 27.3106 42.2695 27.3106C40.4084 27.3106 38.4071 26.8971 36.6148 25.9986L34.2694 29.3116V37.8723C35.2356 38.5971 36.7168 38.9774 38.0604 38.9774C38.3714 38.9774 38.6799 38.9417 38.9578 38.9085L39.7864 39.909C39.511 40.5982 39.4422 41.2899 39.4422 41.9458C39.4422 42.4972 39.511 42.9821 39.5798 43.4645H51.06C51.1288 42.3261 51.9905 41.6702 53.4386 41.5324C53.4386 39.738 52.61 36.494 52.61 34.2836C52.61 32.5582 53.2295 30.1411 54.8153 27.8644L54.4023 27.0349V27.0323ZM34.8557 26.1696C34.6492 26.1696 34.3382 25.9961 34.2694 25.0313C34.407 25.238 34.5447 25.3759 34.7512 25.7204C34.6135 25.3069 34.5447 25.1691 34.407 24.7531C34.8889 25.2355 35.0954 25.58 35.0954 25.8583C35.0954 26.065 34.9909 26.1696 34.8532 26.1696H34.8557ZM34.2694 66.7243C37.9915 64.861 42.7513 63.9983 46.3359 61.9947C50.1294 59.8558 53.3009 55.4019 53.5074 45.9454C51.784 45.8076 51.1288 45.0138 51.06 44.0133H39.6487C39.6844 44.3247 39.7532 44.7381 39.7532 45.1874C39.7532 47.8801 38.9603 49.7433 34.2719 51.3309V66.7243H34.2694ZM35.7506 16.2996V16.7131C35.7506 17.0577 35.6818 17.1955 35.4753 17.1955C35.3376 17.1955 35.1311 16.9888 34.9934 16.5064C34.9934 16.8509 34.7869 17.1955 34.4427 17.1955V16.782C34.4427 15.7458 34.6492 15.4701 35.409 15.4701C35.9596 15.4701 36.2375 15.7458 36.5129 16.782C36.3064 16.782 36.031 16.782 35.7557 16.2996H35.7506ZM35.8883 17.8183V18.3007C35.8883 18.5763 35.8194 18.7831 35.6818 18.7831C35.4753 18.7831 35.2687 18.5074 35.1999 17.9536C35.1311 18.367 34.8557 18.7142 34.5804 18.7831C34.5804 17.8846 34.6492 17.4022 34.9246 17.1955C35.0622 17.5401 35.3376 17.609 35.5441 17.609C35.8194 17.609 36.0259 17.4022 36.0259 17.1266C36.3013 17.3333 36.5078 17.6779 36.6454 18.3007C36.3701 18.4385 35.9571 18.0939 35.8857 17.8183H35.8883ZM36.648 22.3054L36.3727 21.8919L35.7531 21.1313L35.1336 21.338L34.7895 21.6826H34.6518L34.7895 21.1313L35.6869 20.58L35.3427 19.0613C35.4115 19.1302 35.4804 19.1302 35.6869 19.1302C35.8245 19.1302 35.8934 19.1302 35.9622 19.0613L36.0999 20.58L37.5479 21.1313L37.7545 21.5447H37.6168L37.4791 21.338L36.7908 21.1313L37.3414 21.6137L37.4103 22.0961H37.2726L37.0661 21.7515L36.3064 21.1313L36.7194 21.8204L36.7882 22.3028H36.6505L36.648 22.3054ZM35.3733 25.4116C35.2356 25.4116 34.9934 25.3427 34.7181 24.7224C34.9246 24.8603 34.8557 24.7914 35.2687 25.067C35.0622 24.8603 34.9246 24.7224 34.7869 24.4468C35.3376 24.7224 35.5798 24.9649 35.5798 25.2406C35.5798 25.3452 35.5109 25.4141 35.3733 25.4141V25.4116ZM35.7531 47.6044C35.2025 46.9842 35.2025 46.4304 35.7531 45.879C35.7531 46.3614 36.4415 46.9153 36.0285 47.3288C36.4415 46.9153 36.9947 47.6734 37.4077 47.6734C36.9947 48.1558 36.4415 48.3625 35.7531 47.6044ZM37.1324 22.7878C38.0986 22.7878 40.2707 23.9618 42.2338 23.9618C43.4066 23.9618 44.0261 23.824 44.6481 23.3416C44.5105 25.4116 43.6131 25.9655 42.0273 25.9655C39.8909 25.9655 36.857 24.4468 35.822 24.4468C35.9596 23.2727 36.3038 22.7903 37.1324 22.7903V22.7878ZM36.0285 69.3813L36.3727 69.4502V71.658L36.0285 71.6222V69.3787V69.3813ZM36.648 46.8438C36.0973 46.4635 36.1662 45.9454 36.4415 45.5319L37.372 43.5309H37.4766L36.7882 45.463C36.857 45.8076 37.1324 46.2236 36.857 46.5682C37.3389 46.2236 37.7545 46.706 38.3051 46.706C37.8233 47.1884 37.3746 47.3262 36.6505 46.8438H36.648ZM38.3026 72.0383L37.4052 71.8315V71.3823L37.0253 71.3134L36.8876 71.7626L36.5078 71.6937L37.1961 69.6237C37.4715 69.6595 38.0247 69.7973 38.3 69.8662V70.2108L37.7494 70.073V70.6243L38.2312 70.6932V71.0378L37.7494 70.9331V71.5891L38.3 71.6937V72.0383H38.3026ZM37.6142 14.296C37.4766 14.9852 37.3389 15.9525 37.0636 16.5727C36.7882 16.5727 36.5817 16.1592 36.5817 15.6743C36.5817 15.1893 36.857 14.0178 36.9259 13.3287C36.9259 14.0178 37.3389 14.296 37.6142 14.296ZM38.9935 14.5717C38.7181 16.2282 37.9584 18.7831 36.9947 20.2328C36.857 20.1639 36.7882 19.9572 36.7882 19.8193C36.7882 19.4748 36.9259 19.0613 37.1324 18.4385C37.4766 17.1955 38.0298 15.4701 38.1675 13.469C38.2363 14.2986 38.6493 14.5053 38.996 14.5742L38.9935 14.5717ZM37.3032 24.3039C37.5785 24.3728 37.8207 24.1992 37.8207 23.8546C37.8207 23.5101 37.7162 23.1987 37.3389 23.1298C37.0636 23.094 36.857 23.3033 36.857 23.6811C36.857 23.9925 36.9947 24.2324 37.3058 24.3013L37.3032 24.3039ZM37.061 10.7737C37.061 10.2913 37.2675 10.0846 37.474 10.0846C37.6805 10.0846 37.7494 10.2913 37.7494 11.3276C37.7494 12.1571 37.7494 12.9152 37.6117 13.8136C37.3363 13.8136 36.9922 13.4001 36.9922 12.7774C36.9922 12.3639 37.061 11.6722 37.061 10.7763V10.7737ZM37.0967 71.002L37.4077 71.0378V70.3818L37.4434 69.9683H37.4077L37.3032 70.3818L37.0967 71.002ZM37.3389 24.166C37.2012 24.1303 37.2012 23.9236 37.2012 23.7168C37.2012 23.4412 37.2012 23.2344 37.3389 23.2676C37.4766 23.3008 37.4766 23.5101 37.4766 23.75C37.4766 23.9899 37.4766 24.1992 37.3389 24.1635V24.166ZM37.5454 46.1521C37.3389 46.0832 37.2012 45.8765 37.2012 45.6698C37.2012 45.2563 37.6831 44.8402 38.1675 44.5646V42.2879H38.272C38.4097 44.705 38.4454 44.9806 38.4454 45.2563C38.4454 45.8765 37.9635 46.2925 37.5479 46.1521H37.5454ZM40.3039 15.0541C40.0285 16.7106 39.1311 19.4722 38.0986 20.922C37.961 20.7841 37.8921 20.6463 37.8921 20.4396C37.8921 20.095 37.961 19.6815 38.1675 19.1277C38.6493 17.8157 39.3402 15.8147 39.5467 13.8136C39.6155 14.6431 39.8909 14.9877 40.3039 15.0566V15.0541ZM38.8915 24.822L38.6162 24.166C38.7538 24.1303 38.8227 24.0282 38.8227 23.8904C38.8227 23.6836 38.685 23.5458 38.3408 23.4412L37.9966 23.3365V24.5106L38.3408 24.6152V24.166L38.5142 24.6842L38.8941 24.822H38.8915ZM38.5116 8.42811C38.7181 8.42811 38.8558 8.70377 39.0623 10.4292C38.4428 10.4292 38.2337 9.74003 38.2337 9.11725C38.2337 8.63486 38.3026 8.42811 38.5091 8.42811H38.5116ZM39.1311 10.983V12.1571C39.1311 12.7084 39.1311 13.2623 39.0623 13.9514C38.6493 13.9514 38.2337 13.538 38.2337 12.9152C38.2337 12.5706 38.3026 12.0193 38.3026 11.3965C38.3026 10.983 38.3026 10.567 38.2337 10.0157C38.3714 10.6359 38.7156 10.983 39.1311 10.983ZM38.5116 23.8904C38.5116 24.0282 38.4428 24.0971 38.3383 24.0639V23.6147C38.4759 23.6505 38.5116 23.7525 38.5116 23.8904ZM39.4779 9.87786C39.3402 9.11981 39.1337 8.08354 38.6493 7.46077C38.5805 7.32294 38.5116 7.25402 38.5116 7.1162C38.5116 6.97837 38.6493 6.90945 38.7181 6.90945C38.9246 6.90945 39.1311 7.1162 39.2688 7.32294C39.8883 8.22137 40.2351 9.18617 40.3727 10.9805C39.822 10.9805 39.6155 10.7048 39.4753 9.87531L39.4779 9.87786ZM41.6143 15.1919C41.2701 17.6779 40.2351 20.2303 39.2 21.8868C38.9935 21.8179 38.8558 21.68 38.8558 21.4733C38.8558 21.1287 39.0623 20.6438 39.2688 20.0235C39.6818 18.8494 40.5104 17.124 40.8546 14.0178C40.8546 14.8473 41.1987 15.1919 41.6118 15.1919H41.6143ZM38.8558 71.173C38.8558 70.9995 38.9603 70.8974 39.1311 70.8974C39.302 70.8974 39.4065 71.002 39.4065 71.173C39.4065 71.344 39.302 71.4487 39.1311 71.4487C38.9603 71.4487 38.8558 71.344 38.8558 71.173ZM39.3377 24.9573C39.613 25.0262 39.924 24.9215 39.924 24.5438C39.924 24.1992 39.7864 23.9236 39.3733 23.7857L38.9935 23.6479V24.8552L39.3377 24.9598V24.9573ZM40.7857 9.87531C40.6124 8.49448 40.0974 7.45821 39.5442 6.9069C39.2688 6.63125 39.0623 6.56233 39.0623 6.4245C39.0623 6.28668 39.2 6.21776 39.3377 6.21776C39.7507 6.21776 40.5104 6.83799 41.0611 7.87425C41.4052 8.63486 41.7494 9.80639 41.8208 11.0494C41.2701 11.0494 40.8903 10.7048 40.7857 9.87531ZM52.5769 68.5492C52.0262 68.5492 51.5775 68.2378 51.5775 67.7222C51.5775 67.3087 51.8197 66.9974 52.2327 66.9284C50.8892 66.5481 48.6813 69.0341 45.2345 69.0341C43.2357 69.0341 41.1656 68.2046 39.1668 66.5481C43.6488 65.203 46.2339 63.4419 49.0612 63.4419C51.8885 63.4419 53.8873 65.2362 53.8873 67.1352C53.8873 68.0336 53.2678 68.5492 52.5769 68.5492ZM39.5798 24.4749C39.5798 24.7505 39.4753 24.8194 39.3377 24.7863V23.9567C39.4753 23.9925 39.5798 24.0946 39.5798 24.4749ZM40.4416 11.5318C40.5104 11.8075 40.5104 12.0831 40.5104 12.4302C40.5104 13.1194 40.4416 13.8111 40.3039 14.5691C39.6844 14.4313 39.6155 13.8774 39.6155 13.3261C39.6155 12.9815 39.6844 12.3588 39.6844 11.8764C39.6844 11.5318 39.6155 11.0468 39.5467 10.4266C39.7532 11.3225 40.0974 11.5318 40.4441 11.5318H40.4416ZM42.889 38.0382V35.4832C41.0279 35.0698 39.5798 34.5848 39.5798 33.3444H46.8891C46.8891 34.5874 45.5098 35.0698 43.5799 35.4832V38.176L42.8916 38.0382H42.889ZM42.578 17.8821C42.0273 19.6764 41.1987 21.5396 40.1637 22.7826C40.026 22.7137 39.9572 22.6448 39.9572 22.4381C39.9572 22.1624 40.3013 21.6111 40.6455 20.7127C41.0585 19.5386 41.5429 18.2956 41.9559 16.4323C41.9559 17.3997 42.1624 17.7443 42.5754 17.8821H42.578ZM40.0617 25.1308L40.75 25.3044V25.0976L40.4059 25.0287V24.7531L40.6812 24.822V24.6152L40.4059 24.5795V24.2681L40.7169 24.3728V24.166L40.0617 23.9925V25.1308ZM40.9234 72.8295H40.8546C40.3039 72.8295 40.0948 72.3471 40.0948 71.5865C40.0948 70.9663 40.3013 70.4813 40.7143 70.4813C41.1962 70.4813 41.4027 70.9637 41.4027 71.7933C41.4027 72.2067 41.3339 72.4824 41.0585 72.6202L41.265 72.5513L41.5404 72.6202V73.0337L40.9209 72.827L40.9234 72.8295ZM42.3715 47.0812C43.2689 48.6688 44.4391 49.0823 45.7495 49.0823C46.5092 49.0823 47.1287 48.7377 47.7482 48.7377C48.2989 48.7377 48.7145 49.1512 48.7145 49.6361C48.7145 49.9118 48.5768 50.1874 48.508 50.3253L43.1287 58.7455H41.8183L41.5429 58.0564C41.7494 57.9186 41.8871 57.7118 41.8871 57.5051C41.8871 56.2621 40.439 55.2284 40.439 52.7424C40.439 50.5346 41.3364 49.705 41.3364 48.8066C41.3364 48.531 41.2676 48.1864 41.0611 47.8393L41.6118 47.0787H42.3715V47.0812ZM40.4416 71.6554C40.4416 72.0689 40.5104 72.485 40.7857 72.485C40.9922 72.485 41.0611 72.1404 41.0611 71.6554C41.0611 71.242 40.9922 70.8616 40.75 70.8616C40.5078 70.8616 40.439 71.173 40.439 71.6554H40.4416ZM42.889 39.1433C41.3033 38.8677 40.8903 38.4542 40.8903 38.005C40.8903 37.5558 41.1656 37.1065 42.4072 36.762V37.5558C41.9942 37.6604 41.8565 37.7625 41.8565 37.9692C41.8565 38.176 42.0299 38.2806 42.8916 38.4516L43.5799 38.5895C45.441 38.9698 45.9585 39.6589 46.165 40.0035C46.2339 40.1413 46.2696 40.3149 46.2696 40.3838C46.2696 40.5905 46.2007 40.7973 46.1319 40.7973C45.7189 40.7973 46.2007 39.8299 43.5799 39.2786L42.8916 39.1408L42.889 39.1433ZM41.8208 11.6007C41.8208 12.4991 41.8208 13.5329 41.6831 14.638C41.0636 14.5691 40.9948 13.9489 40.9948 13.4639V12.0831C40.9948 11.6007 40.9948 11.1158 40.9259 10.5644C41.0636 11.394 41.4766 11.6007 41.8234 11.6007H41.8208ZM40.9591 24.2324V25.3708L41.1656 25.4065L41.1299 24.5438L41.4409 25.4422L41.8539 25.4779V24.3396H41.6474L41.6831 25.1691L41.4078 24.3064L40.9591 24.2375V24.2324ZM41.5786 67.0305C41.9916 67.0994 44.0261 67.1352 44.4391 67.1352C45.8872 67.1352 47.9548 66.8595 49.2652 66.3057C46.5067 67.8243 43.9215 67.6865 41.5761 67.6176C42.8865 68.2378 44.0924 68.5135 45.2294 68.5135C48.0899 68.5135 50.2288 66.4078 51.7458 66.4078C52.6432 66.4078 53.1938 66.7523 53.2627 67.5818C53.2984 67.4772 53.3315 67.2705 53.3315 67.1684C53.3315 64.9606 50.7795 63.9243 49.0561 63.9243C46.7106 63.9243 43.4371 65.7544 41.0917 66.4792C43.8502 66.4792 46.9171 65.0984 49.2626 65.0984C50.0223 65.0984 50.8484 65.2362 51.3302 65.443C48.2964 64.9606 45.7801 66.7549 41.5735 67.0305H41.5786ZM41.3364 52.6045C41.3364 54.8813 42.4403 55.7797 42.6468 56.9538V48.7403L42.165 48.2579C42.165 49.8454 41.3364 50.3967 41.3364 52.6071V52.6045ZM43.5774 39.6972V39.9729C44.5436 40.1796 45.1631 40.3863 45.1631 40.7309H41.3721C41.3721 40.3863 41.9228 40.1796 42.889 39.9729V39.5594L43.5774 39.6972ZM41.7494 21.8179C41.7494 21.6111 41.8183 21.4044 41.8871 21.1287C41.9559 21.5422 42.9222 21.7489 42.9222 22.4406V22.7163C43.0598 22.3717 43.404 22.3717 43.6819 22.3717C44.3702 22.3717 44.6124 22.4074 44.717 22.3028C44.5793 22.923 44.1663 23.2701 43.5442 23.2701C42.7157 23.2701 41.752 22.7188 41.752 21.8204L41.7494 21.8179ZM42.9222 71.2777V72.901C42.9222 73.2456 42.6111 73.488 42.3026 73.3834C41.9585 73.2787 41.752 73.0388 41.752 72.485V70.8616L42.0961 70.9995V72.5539C42.0961 72.8295 42.2007 73.0031 42.3715 73.0363C42.5092 73.072 42.578 72.9674 42.578 72.8295V71.173L42.9222 71.2777ZM44.0592 36.2464L44.6787 36.1086C46.8508 35.6262 48.1256 34.8656 48.1256 33.2091C48.1256 31.8282 47.0217 31.0702 45.7112 31.0702C44.8138 31.0702 44.2989 31.3127 43.7125 31.8282C43.2638 32.2085 42.9528 32.3796 42.4709 32.3796C42.1956 32.3796 41.9891 32.2417 41.9891 32.1039C41.9891 31.5526 43.7125 30.1028 45.7112 30.1028C47.5723 30.1028 49.1581 31.208 49.1581 33.1402C49.1581 35.2791 47.3658 36.3153 44.8827 36.9355L44.0541 37.0734V36.2438L44.0592 36.2464ZM43.2663 11.8789V12.8463C43.2663 14.1582 43.1287 15.8836 42.7157 17.3333C42.3715 17.1955 42.0961 16.8509 42.0961 16.0903C42.0961 15.8836 42.0961 15.6079 42.165 15.4012C42.2338 14.9188 42.3715 13.7447 42.3715 12.3639C42.3715 11.8815 42.3715 11.3276 42.3026 10.7763C42.5092 11.6722 42.9222 11.8815 43.2689 11.8815L43.2663 11.8789ZM42.3689 20.7152C42.3689 20.5774 42.3689 20.4396 42.4378 20.3707C42.6443 20.7841 43.6105 20.8531 43.6105 21.5447C43.7482 20.9245 44.7144 21.2002 45.1274 20.7841C45.0586 21.6137 44.6456 21.8893 43.9547 21.8893C43.0573 21.8893 42.3689 21.4758 42.3689 20.7152ZM43.1618 31.5526C43.1618 31.4148 43.0573 31.3101 42.9196 31.3101C42.7819 31.3101 42.6774 31.4148 42.6774 31.5526C42.6774 31.6904 42.7819 31.7951 42.9196 31.7951C43.0573 31.7951 43.1618 31.6904 43.1618 31.5526ZM42.7819 19.6101C42.7819 19.4722 42.7819 19.4033 42.8508 19.2655C43.1261 19.679 43.817 19.679 43.817 20.2328C44.0235 19.6815 44.7832 19.8883 45.1274 19.6126C45.0586 20.3017 44.6456 20.7178 44.0235 20.7178C43.2663 20.7178 42.7819 20.2354 42.7819 19.6126V19.6101ZM44.7119 74.315L43.7456 73.9015V73.3834L43.3326 73.2098L43.195 73.6922L42.8839 73.5544L43.5034 71.5176L44.7093 72V72.3803L44.1586 72.1378V72.6891L44.5716 72.8627V73.2073L44.1586 73.0337V73.6539L44.7093 73.8607V74.3099L44.7119 74.315ZM43.608 49.3962C43.4015 49.2916 43.1593 49.1537 42.9884 49.0159V57.0227L43.608 56.0911V49.3962ZM44.021 19.5411C43.4015 19.5411 43.0216 18.9898 43.0547 18.2981C43.1924 18.436 44.021 18.5738 43.9521 19.2655C44.021 18.5738 44.6405 18.7142 44.9184 18.367V18.7116C44.9184 19.1251 44.5742 19.5386 44.021 19.5386V19.5411ZM43.4346 72.901L43.7456 73.0388V71.9336L43.6768 71.8979L43.5723 72.3471L43.4346 72.8984V72.901ZM44.021 18.4385C43.8145 18.3696 43.608 18.0939 43.608 17.7494C43.608 17.3359 43.8833 16.9888 43.8833 16.4375C44.2275 16.782 44.5028 17.2644 44.5028 17.6805C44.5028 18.0965 44.2275 18.3721 44.021 18.4411V18.4385ZM44.5716 49.7765C44.2963 49.7076 44.1586 49.6387 43.9521 49.5698V55.5755L44.5716 54.6439V49.7765ZM44.2606 13.3976C44.2606 9.18617 46.4659 7.39185 48.536 7.39185C50.2594 7.39185 51.4322 8.53021 51.4322 9.97996C51.4322 11.154 50.5348 11.9478 49.4334 11.9478C49.0892 11.9478 48.6405 11.9121 48.2964 11.7054C49.2958 13.9821 51.4679 15.4318 51.4679 18.367C51.4679 19.8857 50.8127 21.68 49.5711 22.6474C47.7788 22.923 46.3308 24.0971 46.1931 24.993C45.7112 24.5795 45.2268 23.75 45.2268 22.923C45.2268 22.0246 45.7775 21.1287 46.8814 20.8531C44.8827 18.5738 44.2606 15.539 44.2606 13.3976ZM47.5698 10.567C47.5698 9.94678 47.9496 9.53074 48.4672 9.53074C49.0179 9.53074 49.2958 9.94422 49.2958 10.3603C49.2958 10.8095 48.9516 11.2587 48.1918 11.1898C48.4672 11.4654 48.9516 11.5343 49.4334 11.5343C50.2263 11.5343 50.8815 10.8784 50.8815 9.98251C50.8815 8.7395 49.9841 7.8768 48.536 7.8768C46.7438 7.8768 44.745 9.53329 44.745 13.4001C44.745 15.8172 45.5047 18.5763 47.5723 21.0623C46.3308 21.338 45.7112 22.0297 45.7112 22.9256C45.7112 23.4769 45.8846 23.8929 46.0911 24.1329C46.6418 23.2702 47.3327 22.7188 48.7451 22.4074C47.9879 22.0629 47.1236 22.2007 46.5041 22.6831C46.884 21.8536 47.7788 21.509 48.8827 21.7158C45.7444 15.9857 45.2982 12.4302 46.2288 10.3603C45.8846 12.3971 45.9178 15.5033 49.4003 21.3355C49.7113 16.7106 47.6769 15.8121 47.1593 12.5681C48.0567 15.6411 50.2977 16.537 50.0198 21.3686C50.675 20.5417 50.9503 19.2629 50.9503 18.367C50.9503 15.123 47.5723 13.053 47.5723 10.567H47.5698ZM44.9158 49.8454V54.1589L45.5022 53.2962V49.8786C45.3288 49.8786 45.1223 49.8786 44.9158 49.8429V49.8454ZM45.7087 74.731L45.4334 73.9015L45.3977 73.6948H45.26V74.5575L44.9158 74.4197V72.074L45.26 72.2119C45.8107 72.4186 45.9483 72.6943 45.9483 73.0414C45.9483 73.1792 45.8795 73.4906 45.673 73.5927L46.1905 74.9378L45.7087 74.731ZM45.6042 73.0388C45.6042 72.7632 45.4665 72.6585 45.26 72.5896V73.3502C45.3977 73.4191 45.6042 73.3145 45.6042 73.0388ZM46.4327 49.7765C46.2594 49.8122 46.0529 49.8454 45.8464 49.8454V52.7449L46.4327 51.8822V49.7765ZM47.1211 75.3181L46.2237 74.9735V72.6253L47.1211 73.0388V73.3834L46.5704 73.1409V73.728L47.0522 73.9015V74.2461L46.5704 74.0725V74.7617L47.1211 74.9352V75.3155V75.3181ZM47.3964 49.5009C47.2588 49.5009 47.0522 49.6387 46.7769 49.7076V51.3641L47.6743 50.0522C47.812 49.8454 47.6743 49.5009 47.399 49.5009H47.3964ZM47.6386 74.4554C47.6386 74.2818 47.7431 74.1797 47.914 74.1797C48.0848 74.1797 48.1893 74.2844 48.1893 74.4554C48.1893 74.6264 48.0848 74.731 47.914 74.731C47.7431 74.731 47.6386 74.6264 47.6386 74.4554ZM49.5354 74.0751L49.8796 74.2129L49.5354 76.3186L48.9159 76.0761L48.6405 73.6948L49.0204 73.8683L49.1938 75.2824V75.8694L49.2983 75.9051L49.334 75.3181L49.5405 74.0751H49.5354ZM49.6042 71.3134C49.6042 71.9005 49.9484 72.245 50.4659 72.245C51.2588 72.245 52.2251 71.6937 52.9491 71.2777C52.5361 70.7264 51.6744 70.2772 50.9146 70.2772C50.1549 70.2772 49.6042 70.6906 49.6042 71.3134ZM49.6399 61.5812C52.8114 60.7543 52.8471 57.232 53.8108 54.2636C57.742 57.0252 59.1901 59.4398 59.1901 62.2015C59.1901 65.4123 57.4667 66.8953 55.7433 66.8953C54.7082 66.8953 54.0887 66.275 54.0887 65.5144C54.0887 64.9631 54.5705 64.5471 55.0549 64.5471C55.6056 64.5471 55.8835 64.8917 55.9523 65.1673C56.09 65.0295 56.09 64.8917 56.09 64.6492C56.09 63.9243 55.3328 62.7502 55.1238 61.5761C54.7108 62.4746 53.538 63.0948 52.3653 63.0948C51.2614 63.0948 50.0555 62.5435 49.6425 61.5761L49.6399 61.5812ZM54.879 71.2445C54.1907 71.2445 53.4666 71.5891 52.6738 72.0383C51.812 72.5207 50.8458 72.9342 49.951 72.6942C51.088 73.1766 52.6049 73.5212 53.7088 73.5212C54.9504 73.5212 56.2608 73.0388 56.2608 72.1761C56.2608 71.7269 55.779 71.2445 54.8816 71.2445H54.879ZM50.9146 76.7678L50.0172 76.4564V74.2486L50.9146 74.56V74.9046L50.364 74.6979V75.2849L50.777 75.3895V75.7341L50.364 75.5963V76.2523L50.9146 76.3901V76.7704V76.7678ZM58.6369 62.2015C58.6369 59.9937 57.3953 57.5766 55.1901 55.989C56.7758 58.4061 57.6732 61.0274 57.4641 63.5466C57.12 61.303 56.1894 58.3014 54.6037 56.16C54.777 58.5771 53.8796 61.2341 52.4316 61.7165C53.5355 60.7492 54.3972 58.1279 53.8796 56.1243C53.2601 59.3683 52.2582 61.1984 50.5348 61.8543C50.8458 62.1657 51.603 62.5435 52.3627 62.5435C53.9153 62.5435 55.2232 61.474 55.1901 58.5056C55.2589 62.1632 56.6024 63.3041 56.6024 64.6824C56.6024 65.7875 55.8096 66.4078 54.9122 66.1321C56.2914 67.0305 58.6343 65.614 58.6343 62.1963L58.6369 62.2015ZM51.8809 77.0078L51.6387 76.3518L51.603 76.1782H51.4653V76.9031L51.1212 76.8342V74.5907L51.5342 74.6953C51.9472 74.7999 52.1537 75.1088 52.1537 75.5248C52.1537 75.7673 52.016 76.0072 51.8783 76.0761L52.2913 77.1124L51.8783 77.0078H51.8809ZM51.812 75.4534C51.812 75.2466 51.6744 75.0731 51.4679 75.0731V75.8668C51.6744 75.8668 51.812 75.729 51.812 75.4534ZM53.8796 25.1997C52.7757 23.9567 52.0874 21.9557 52.0874 20.2303C52.0874 16.7106 54.1907 14.8116 56.0186 14.7759C55.9141 15.1562 55.8453 15.5696 55.8453 15.95C55.8453 17.5375 56.8446 18.0888 56.8446 20.2303C57.533 19.679 58.5681 19.3676 59.3966 19.3676C60.2252 19.3676 60.707 19.5054 60.8447 19.5743C61.12 21.2997 60.1564 23.0609 58.6394 23.8878C59.2258 24.0946 59.6057 24.4749 59.9499 24.8194C59.9855 24.2681 60.3986 23.8189 61.1914 23.8189C62.1577 23.8189 63.259 24.577 63.259 26.0267C63.259 27.3386 62.1551 28.3034 60.707 28.3034C58.0174 28.3034 56.0875 25.1972 53.8822 25.1972L53.8796 25.1997ZM52.7757 74.971V76.4896C52.7757 76.7321 52.8446 76.8342 52.9822 76.8342C53.0511 76.8342 53.1887 76.7653 53.1887 76.5585V75.0041H53.5686V76.4871C53.5686 76.9695 53.3264 77.2451 52.9822 77.2451C52.6381 77.2451 52.3627 77.0384 52.3627 76.4871V74.8995L52.7757 74.9684V74.971ZM62.7032 26.0293C62.7032 25.1997 62.1526 24.2681 61.1863 24.2681C61.0818 24.2681 60.9441 24.2681 60.7376 24.337C61.1506 24.2681 61.4617 24.5438 61.4617 24.9241C61.4617 25.3733 61.1175 25.6847 60.7045 25.6847C59.6694 25.6847 59.6694 24.3039 57.4641 23.9593C59.9473 22.923 60.4291 21.0266 60.3603 19.9214C60.0493 19.8525 59.8096 19.8168 59.4629 19.8168C58.4967 19.8168 57.2576 20.1614 56.1537 21.68C56.2914 21.2665 56.3271 20.7816 56.3271 20.2303C56.3271 18.2292 55.3609 17.4354 55.3609 16.1235C55.3609 15.8479 55.3966 15.5365 55.4654 15.3297C55.3609 15.3297 55.1901 15.3986 55.0855 15.4344C53.5686 16.0546 52.6024 17.7136 52.6024 20.2328C52.6024 21.6826 53.1887 23.3033 53.6706 23.995C53.2907 20.8888 53.4284 18.4385 54.4992 16.782C54.0173 18.5763 53.6706 20.9577 54.1881 23.8929C54.6011 22.5121 54.981 20.7867 55.2232 19.1634C55.3609 20.682 55.0855 22.5453 54.7057 24.0308C55.8096 22.7188 57.6018 21.0981 59.1876 20.6489C57.3953 21.754 55.8784 23.1681 55.1187 24.3064C56.3246 23.6862 57.4641 22.9256 58.5324 22.2696C57.844 23.0966 56.4979 24.0639 55.3609 24.651C55.9804 24.651 57.222 24.6867 58.0505 25.2023C59.6363 26.2028 60.6357 27.1344 61.635 26.3764C60.7045 27.5147 59.3941 26.6189 57.8772 25.6515C56.8778 25.0313 55.7407 25.0645 55.3252 25.1002C57.1174 25.9272 58.8408 27.8261 60.7045 27.8261C61.8772 27.8261 62.7032 27.0681 62.7032 26.0318V26.0293ZM54.7057 76.6274L54.4303 76.6964L54.155 75.5223H54.0861L54.1907 76.3492V77.0741L53.8465 77.1098V75.0041L54.2264 74.9684L54.5017 75.7954L54.5374 76.2446H54.6062L54.6419 75.7622L54.8484 74.8638L55.2614 74.7949V76.6581L54.9173 76.8316V76.1425L55.0218 75.3487L54.953 75.3844L54.7108 76.6274H54.7057ZM59.6006 32.9666C59.6006 35.4858 58.2213 37.9029 58.2213 40.3174C58.2213 40.662 58.2902 41.0755 58.4278 41.4226C56.0135 40.1796 54.1524 37.2801 54.1524 34.105C54.1524 30.5852 56.4291 29.2044 56.4291 27.5479C56.4291 27.4101 56.4291 27.2723 56.3602 27.1344C58.4967 28.1707 59.6006 30.5163 59.6006 32.9666ZM55.9472 33.3801C55.9829 32.2749 56.3602 29.8936 56.6356 28.8598C55.394 30.9298 54.7057 32.3796 54.7057 34.105C54.7057 36.5221 55.6719 38.6609 57.6707 40.3863C57.6018 37.8314 59.0499 35.4858 59.0499 32.9666C59.0499 31.3433 58.6369 29.8246 57.6707 28.6531C57.8772 29.3422 58.0148 30.9298 58.0148 32.1039C58.0148 33.6915 57.533 36.1086 56.9109 38.1785C57.2551 35.5547 57.4616 33.6915 57.4616 32.1039C57.4616 31.4148 57.3928 29.8272 57.1174 28.8598C56.8064 30.0339 56.5999 31.6215 56.4291 33.3801C56.3246 34.3806 56.2226 35.4501 56.1537 36.5221C56.0161 35.8329 55.9115 34.3832 55.9472 33.3801ZM59.3252 49.3605C60.5668 50.5346 61.7396 52.3978 61.7396 55.2284C61.7396 57.3673 60.8422 59.0952 59.7408 59.6797C59.0525 57.6429 58.0174 56.5377 57.12 55.504C55.8784 54.1232 54.8433 52.6735 54.8433 49.9807C54.8433 48.8066 55.1187 47.0812 55.5317 46.1853C56.2914 47.4972 57.8772 47.9796 59.3227 49.3605H59.3252ZM59.4629 42.8034C59.8071 42.8034 60.6357 42.7345 60.8753 42.1143C60.8065 42.2189 60.6688 42.2879 60.3935 42.2879C59.8759 42.2879 59.4961 41.8386 59.4961 41.3205C59.4961 40.6314 60.0136 40.1464 60.8396 40.1132C62.2877 40.0443 63.4604 41.4941 63.4604 43.3573C63.4604 45.7029 61.737 47.2931 59.5292 47.2931C57.1837 47.2931 54.9784 45.4987 54.9784 41.9101C54.9784 41.0806 55.0473 40.3914 55.185 39.7712C56.0824 41.7034 57.8058 42.8085 59.4604 42.8085L59.4629 42.8034ZM55.8784 41.7672C56.3959 43.3905 57.8772 44.8045 59.4986 44.8045C60.6357 44.8045 61.3954 44.391 61.9461 43.4237C61.6019 44.5288 60.7045 45.3558 59.4986 45.3558C57.4642 45.3558 56.1537 43.9061 55.4654 42.3874C55.7407 44.8045 57.0511 46.7366 59.5343 46.7366C61.4642 46.7366 62.9123 45.2869 62.9123 43.3548C62.9123 41.7314 61.9818 40.5599 60.8447 40.5599C60.6025 40.5599 60.294 40.6288 60.1564 40.8713C60.294 40.7666 60.4317 40.6977 60.6739 40.6977C61.1914 40.6977 61.5356 41.1112 61.5356 41.6651C61.5356 42.5967 60.7759 43.3573 59.468 43.3573C57.9511 43.3573 56.916 42.7371 55.8835 41.7697L55.8784 41.7672ZM55.5342 48.531C55.4654 49.3247 55.4654 49.5315 55.4654 49.9807C55.4654 52.6045 56.5005 53.845 57.533 55.1569C58.3616 56.0553 59.3252 57.3647 60.0161 58.8145C60.5668 58.1942 61.1889 56.9512 61.1889 55.2258C61.1889 52.3952 59.7765 49.7382 56.605 48.046C58.5018 50.1517 60.0187 52.6709 60.0875 56.6756C59.468 53.018 58.0888 50.532 56.1563 48.462C56.6738 51.017 57.8109 53.0869 58.9148 55.2947C57.3979 53.5693 56.1231 51.188 55.5368 48.531H55.5342Z" fill="white"/>
<path d="M74.046 59.7692C76.3125 59.7692 77.7682 61.0173 77.7682 63.2251C77.7682 65.7034 75.8918 67.1302 73.4469 67.1302H71.4966V59.7692H74.0486H74.046ZM72.8146 66.1552C73.1435 66.1858 73.656 66.2011 74.1047 66.2011C75.2749 66.2011 76.4144 65.5247 76.4144 63.4522C76.4144 61.4997 75.155 60.7033 73.6228 60.7033H72.8121V66.1577L72.8146 66.1552ZM80.4018 59.7692H85.0086L84.8888 60.7467C83.8384 60.7314 82.7727 60.7161 81.7224 60.7008V62.8933H84.6491L84.514 63.7789L81.7224 63.733V66.1679L85.2177 66.122L85.0978 67.1276H80.4018V59.7666V59.7692Z" fill="white"/>
<path d="M71.6191 24.3752H72.9245V28.9414C72.9245 30.3528 73.6306 30.8633 74.9207 30.8633C75.7467 30.8633 76.3305 30.3682 76.3305 29.3013V24.3726H77.5899V29.0154C77.5899 30.8633 76.5243 31.8843 74.4694 31.8843C72.6976 31.8843 71.6191 31.042 71.6191 29.3447V24.3726V24.3752ZM85.7864 31.8868L81.8551 26.2537V31.7362H80.6543V24.3752H81.975L85.7124 29.8296V24.3752H86.8979V31.6622L85.7864 31.8868ZM91.4308 31.7362H90.1102V24.3752H91.4308V31.7362ZM93.8043 24.4492L95.1555 24.2246L97.2716 30.3248L99.3264 24.3752H100.662L97.8554 31.6775L96.5654 31.8868L93.8043 24.4492ZM103.046 24.3752H107.653L107.533 25.3528C106.483 25.3374 105.417 25.3221 104.367 25.3068V27.4993H107.293L107.158 28.385L104.367 28.339V30.774L107.862 30.728L107.742 31.7337H103.046V24.3726V24.3752ZM111.75 28.6862V31.7362H110.429V24.3752H112.951C114.541 24.3752 115.472 25.0056 115.472 26.2384C115.472 27.2441 114.901 27.9358 114.136 28.3263L116.071 31.7362H114.585L113.04 28.6555C112.831 28.6862 112.619 28.7015 112.425 28.7015C112.26 28.7015 112.005 28.6862 111.75 28.6862ZM114.121 26.6136C114.121 25.7433 113.626 25.2609 112.515 25.2609C112.244 25.2609 111.989 25.2609 111.75 25.2762V27.7699C112.051 27.8005 112.364 27.8158 112.726 27.8158C113.448 27.8158 114.121 27.4993 114.121 26.6136ZM118.429 26.2537C118.429 25.1128 119.554 24.2246 121.145 24.2246C122.029 24.2246 122.855 24.3446 123.38 24.5105L123.141 25.5774C122.435 25.3221 121.654 25.1562 120.8 25.1562C120.125 25.1562 119.645 25.4727 119.645 26.0572C119.645 26.6417 120.081 26.9735 121.267 27.4406C123.143 28.1757 123.533 28.7321 123.533 29.6943C123.533 31.0012 122.317 31.9175 120.428 31.9175C119.663 31.9175 118.822 31.7669 118.266 31.601L118.521 30.4881C119.255 30.774 120.081 30.9527 121.027 30.9527C121.672 30.9527 122.274 30.6234 122.274 30.0364C122.274 29.4059 121.945 29.0154 120.579 28.4896C119.064 27.9026 118.432 27.3921 118.432 26.2512L118.429 26.2537ZM127.564 31.7362H126.243V24.3752H127.564V31.7362ZM133.316 24.3752C135.582 24.3752 137.038 25.6233 137.038 27.8311C137.038 30.3095 135.161 31.7362 132.716 31.7362H130.766V24.3752H133.318H133.316ZM132.084 30.7612C132.416 30.7919 132.925 30.8072 133.374 30.8072C134.544 30.8072 135.684 30.1308 135.684 28.0583C135.684 26.1057 134.425 25.3094 132.892 25.3094H132.082V30.7638L132.084 30.7612ZM143.48 29.725H140.599L139.893 31.7388H138.588L141.423 24.4084L142.789 24.2272L145.596 31.7388H144.202L143.48 29.725ZM142.024 25.6233L140.928 28.7627H143.133L142.022 25.6233H142.024ZM150.532 24.3752C152.798 24.3752 154.254 25.6233 154.254 27.8311C154.254 30.3095 152.378 31.7362 149.933 31.7362H147.982V24.3752H150.534H150.532ZM149.3 30.7612C149.632 30.7919 150.142 30.8072 150.591 30.8072C151.761 30.8072 152.9 30.1308 152.9 28.0583C152.9 26.1057 151.641 25.3094 150.109 25.3094H149.298V30.7638L149.3 30.7612Z" fill="white"/>
<path d="M81.4266 52.9363L73.9874 42.2776V52.653H71.7158V38.7247H74.2143L81.2839 49.0439V38.7247H83.5274V52.5126L81.4266 52.9388V52.9363ZM96.5014 48.8423H91.0508L89.7174 52.6504H87.247L92.6136 38.7783L95.1987 38.4363L100.509 52.6504H97.868L96.504 48.8423H96.5014ZM93.7481 41.0805L91.6754 47.0224H95.8488L93.7481 41.0805ZM114.172 51.9383C113.149 52.5075 111.275 52.9337 109.713 52.9337C105.71 52.9337 102.783 50.5166 102.783 45.8279C102.783 41.4787 105.679 38.4363 110.166 38.4363C111.898 38.4363 113.404 38.7196 114.057 39.0335L113.46 40.9937C112.553 40.6798 111.105 40.2842 109.43 40.2842C107.441 40.2842 105.368 41.4787 105.368 45.4578C105.368 49.6641 108.01 51.0296 110.452 51.0296C111.729 51.0296 113.035 50.6596 113.662 50.2895L114.172 51.9383ZM120.665 52.6479H118.167V38.7196H120.665V52.6479ZM131.378 52.9312C127.63 52.9312 125.017 50.4018 125.017 45.9657C125.017 41.2183 128.14 38.4337 132.54 38.4337C136.288 38.4337 138.901 40.9912 138.901 45.4272C138.901 50.1465 135.778 52.9312 131.378 52.9312ZM131.549 40.2816C129.361 40.2816 127.602 41.6752 127.602 45.3123C127.602 49.4625 129.532 51.1113 132.344 51.1113C134.559 51.1113 136.319 49.7458 136.319 46.0525C136.319 41.9304 134.361 40.2816 131.549 40.2816ZM152.915 52.9312L145.476 42.2725V52.6479H143.205V38.7196H145.703L152.773 49.0388V38.7196H155.016V52.5075L152.915 52.9337V52.9312ZM167.99 48.8372H162.54L161.206 52.6453H158.736L164.102 38.7732L166.685 38.4312L171.995 52.6453H169.354L167.99 48.8372ZM165.237 41.0754L163.164 47.0173H167.338L165.237 41.0754ZM175.712 38.717H178.211V50.8255L184.286 50.7412L184.031 52.6453H175.712V38.717Z" fill="white"/>
<path d="M96.981 66.7546C96.4405 67.0558 95.4514 67.2804 94.6254 67.2804C92.5093 67.2804 90.9644 66.0042 90.9644 63.5233C90.9644 61.2236 92.494 59.6182 94.865 59.6182C95.7802 59.6182 96.5757 59.7688 96.9198 59.9347L96.6037 60.9709C96.1244 60.805 95.357 60.5957 94.4724 60.5957C93.422 60.5957 92.3258 61.2262 92.3258 63.3293C92.3258 65.5524 93.7203 66.2747 95.0129 66.2747C95.6885 66.2747 96.3794 66.0782 96.7082 65.8842L96.9785 66.7546H96.981ZM102.156 67.2804C100.175 67.2804 98.7962 65.9429 98.7962 63.5999C98.7962 61.0909 100.446 59.6182 102.773 59.6182C104.754 59.6182 106.134 60.9709 106.134 63.314C106.134 65.8077 104.484 67.2804 102.156 67.2804ZM102.246 60.5957C101.091 60.5957 100.16 61.3308 100.16 63.2553C100.16 65.4478 101.18 66.3207 102.666 66.3207C103.836 66.3207 104.767 65.5984 104.767 63.6458C104.767 61.4686 103.732 60.5957 102.246 60.5957ZM108.785 59.7688H110.106V66.1675L113.318 66.1216L113.183 67.1272H108.785V59.7662V59.7688ZM118.381 67.2804C116.4 67.2804 115.021 65.9429 115.021 63.5999C115.021 61.0909 116.67 59.6182 118.998 59.6182C120.979 59.6182 122.358 60.9709 122.358 63.314C122.358 65.8077 120.709 67.2804 118.381 67.2804ZM118.47 60.5957C117.315 60.5957 116.385 61.3308 116.385 63.2553C116.385 65.4478 117.405 66.3207 118.891 66.3207C120.061 66.3207 120.992 65.5984 120.992 63.6458C120.992 61.4686 119.957 60.5957 118.47 60.5957ZM126.3 61.438L125.759 67.1323H124.528L125.443 59.7713H126.837L129.119 65.6443L131.325 59.7713H132.719L133.604 67.1323H132.314L131.743 61.4227L129.672 66.9205H129.611V66.9358L128.472 67.117L126.297 61.438H126.3ZM136.355 59.7713H138.741C140.347 59.7713 141.232 60.4017 141.232 61.5146C141.232 62.3415 140.706 62.898 140.046 63.2425C140.872 63.3778 141.772 63.8577 141.772 64.9552C141.772 66.2773 140.556 67.1323 138.501 67.1323H136.355V59.7713ZM139.957 61.9051C139.957 61.1241 139.536 60.6723 138.292 60.6723C138.142 60.6723 137.902 60.6723 137.678 60.6876V62.972C137.948 62.972 138.233 62.9873 138.458 62.9873C139.597 62.9873 139.959 62.5508 139.959 61.9051H139.957ZM140.451 65.1058C140.451 64.2507 139.761 63.7836 138.59 63.7836C138.335 63.7836 137.991 63.7989 137.675 63.7989V66.188C138.081 66.2033 138.575 66.2186 139.042 66.2186C139.822 66.2186 140.451 65.948 140.451 65.1058ZM145.698 67.1349H144.378V59.7739H145.698V67.1349ZM152.888 65.1211H150.007L149.301 67.1349H147.995L150.83 59.8045L152.197 59.6233L155.004 67.1349H153.609L152.888 65.1211ZM151.432 61.0194L150.336 64.1588H152.541L151.429 61.0194H151.432Z" fill="white"/>
</svg>
