<svg width="111" height="84" viewBox="0 0 111 84" fill="none" xmlns="http://www.w3.org/2000/svg">
<path d="M20.9006 82.9365L7.25899 81.1684L1.95752 68.3067L10.2977 57.2263L23.9393 58.9945L29.2408 71.8561L20.9006 82.9365ZM7.55641 80.7623L20.7196 82.4781L28.7623 71.7906L23.6419 59.3874L10.4787 57.6716L2.43594 68.3591L7.55641 80.7623Z" fill="white"/>
<path d="M10.4161 57.2362L10.3618 57.6649L23.7643 59.4064L23.8186 58.9777L10.4161 57.2362Z" fill="white"/>
<path d="M42.5981 73.7945L28.9436 72.0264L23.6421 59.1647L26.9135 54.8164L27.2497 55.0784L24.1205 59.2302L29.241 71.6335L42.4042 73.3361L50.4469 62.6486L47.4341 55.3796L47.8349 55.2093L50.9253 62.7141L42.5981 73.7945Z" fill="white"/>
<path d="M30.0037 31.8567L29.6675 31.5948L34.956 24.5746L48.5977 26.3427L50.4984 30.953L50.1105 31.1233L48.3003 26.7357L35.15 25.033L30.0037 31.8567Z" fill="white"/>
<path d="M64.2694 64.6657L50.7441 62.9107L50.7959 62.4785L64.0754 64.2073L70.9932 55.0129L71.3294 55.2749L64.2694 64.6657Z" fill="white"/>
<path d="M71.924 34.9215L71.5878 34.6596L75.092 30.01L69.9715 17.6068L56.8213 15.9041L48.7009 26.6833L48.3647 26.4213L56.6273 15.4326L70.2689 17.2139L75.5833 30.0624L71.924 34.9215Z" fill="white"/>
<path d="M48.5461 26.7749L34.9045 25.0067L29.603 12.1451L37.9432 1.0647L51.5848 2.83285L56.8863 15.6945L48.5461 26.7749ZM35.2019 24.6007L48.3651 26.3034L56.4078 15.6159L51.2874 3.21267L38.1242 1.49691L30.0814 12.1844L35.2019 24.5876V24.6007Z" fill="white"/>
<path d="M88.6951 31.9876L75.0534 30.2195L69.752 17.3579L78.0921 6.27747L91.7337 8.04561L97.0352 20.9073L88.6951 31.9876ZM75.3508 29.8135L88.514 31.5292L96.5568 20.8418L91.4363 8.43854L78.2731 6.72278L70.2304 17.4103L75.3508 29.8135Z" fill="white"/>
<path d="M90.4403 35.7991L88.8758 32.0139L75.5962 30.2851L75.6479 29.866L89.1732 31.621L90.8412 35.6419L90.4403 35.7991Z" fill="white"/>
<path d="M38.0853 2.88528C38.7923 2.88528 39.3654 2.30475 39.3654 1.58863C39.3654 0.872519 38.7923 0.291992 38.0853 0.291992C37.3783 0.291992 36.8052 0.872519 36.8052 1.58863C36.8052 2.30475 37.3783 2.88528 38.0853 2.88528Z" fill="white"/>
<path d="M29.8358 13.4679C30.5428 13.4679 31.1159 12.8874 31.1159 12.1713C31.1159 11.4552 30.5428 10.8746 29.8358 10.8746C29.1288 10.8746 28.5557 11.4552 28.5557 12.1713C28.5557 12.8874 29.1288 13.4679 29.8358 13.4679Z" fill="white"/>
<path d="M35.1498 26.107C35.8567 26.107 36.4299 25.5264 36.4299 24.8103C36.4299 24.0942 35.8567 23.5137 35.1498 23.5137C34.4428 23.5137 33.8696 24.0942 33.8696 24.8103C33.8696 25.5264 34.4428 26.107 35.1498 26.107Z" fill="white"/>
<path d="M23.8875 60.5008C24.5945 60.5008 25.1676 59.9202 25.1676 59.2041C25.1676 58.488 24.5945 57.9075 23.8875 57.9075C23.1805 57.9075 22.6074 58.488 22.6074 59.2041C22.6074 59.9202 23.1805 60.5008 23.8875 60.5008Z" fill="white"/>
<path d="M10.1683 58.7195C10.8753 58.7195 11.4484 58.139 11.4484 57.4229C11.4484 56.7067 10.8753 56.1262 10.1683 56.1262C9.4613 56.1262 8.88818 56.7067 8.88818 57.4229C8.88818 58.139 9.4613 58.7195 10.1683 58.7195Z" fill="white"/>
<path d="M2.19026 69.6297C2.89725 69.6297 3.47038 69.0491 3.47038 68.333C3.47038 67.6169 2.89725 67.0364 2.19026 67.0364C1.48327 67.0364 0.910156 67.6169 0.910156 68.333C0.910156 69.0491 1.48327 69.6297 2.19026 69.6297Z" fill="white"/>
<path d="M7.60823 82.2425C8.31521 82.2425 8.88835 81.6619 8.88835 80.9458C8.88835 80.2297 8.31521 79.6492 7.60823 79.6492C6.90124 79.6492 6.32812 80.2297 6.32812 80.9458C6.32812 81.6619 6.90124 82.2425 7.60823 82.2425Z" fill="white"/>
<path d="M20.849 83.9188C21.556 83.9188 22.1291 83.3383 22.1291 82.6222C22.1291 81.9061 21.556 81.3256 20.849 81.3256C20.142 81.3256 19.5688 81.9061 19.5688 82.6222C19.5688 83.3383 20.142 83.9188 20.849 83.9188Z" fill="white"/>
<path d="M28.995 73.1135C29.702 73.1135 30.2751 72.533 30.2751 71.8169C30.2751 71.1008 29.702 70.5203 28.995 70.5203C28.288 70.5203 27.7148 71.1008 27.7148 71.8169C27.7148 72.533 28.288 73.1135 28.995 73.1135Z" fill="white"/>
<path d="M42.5721 74.8816C43.2791 74.8816 43.8522 74.3011 43.8522 73.585C43.8522 72.8689 43.2791 72.2883 42.5721 72.2883C41.8651 72.2883 41.292 72.8689 41.292 73.585C41.292 74.3011 41.8651 74.8816 42.5721 74.8816Z" fill="white"/>
<path d="M50.8089 63.9977C51.5159 63.9977 52.0891 63.4172 52.0891 62.7011C52.0891 61.9849 51.5159 61.4044 50.8089 61.4044C50.1019 61.4044 49.5288 61.9849 49.5288 62.7011C49.5288 63.4172 50.1019 63.9977 50.8089 63.9977Z" fill="white"/>
<path d="M64.0364 65.7135C64.7434 65.7135 65.3166 65.133 65.3166 64.4169C65.3166 63.7008 64.7434 63.1202 64.0364 63.1202C63.3295 63.1202 62.7563 63.7008 62.7563 64.4169C62.7563 65.133 63.3295 65.7135 64.0364 65.7135Z" fill="white"/>
<path d="M48.5331 27.8489C49.24 27.8489 49.8132 27.2684 49.8132 26.5523C49.8132 25.8361 49.24 25.2556 48.5331 25.2556C47.8261 25.2556 47.2529 25.8361 47.2529 26.5523C47.2529 27.2684 47.8261 27.8489 48.5331 27.8489Z" fill="white"/>
<path d="M56.6405 16.9519C57.3474 16.9519 57.9206 16.3714 57.9206 15.6553C57.9206 14.9392 57.3474 14.3586 56.6405 14.3586C55.9335 14.3586 55.3604 14.9392 55.3604 15.6553C55.3604 16.3714 55.9335 16.9519 56.6405 16.9519Z" fill="white"/>
<path d="M69.9847 18.6939C70.6917 18.6939 71.2648 18.1133 71.2648 17.3972C71.2648 16.6811 70.6917 16.1006 69.9847 16.1006C69.2777 16.1006 68.7046 16.6811 68.7046 17.3972C68.7046 18.1133 69.2777 18.6939 69.9847 18.6939Z" fill="white"/>
<path d="M75.3377 31.3328C76.0447 31.3328 76.6179 30.7523 76.6179 30.0361C76.6179 29.32 76.0447 28.7395 75.3377 28.7395C74.6308 28.7395 74.0576 29.32 74.0576 30.0361C74.0576 30.7523 74.6308 31.3328 75.3377 31.3328Z" fill="white"/>
<path d="M89.096 33.114C89.803 33.114 90.3762 32.5335 90.3762 31.8174C90.3762 31.1013 89.803 30.5208 89.096 30.5208C88.3891 30.5208 87.8159 31.1013 87.8159 31.8174C87.8159 32.5335 88.3891 33.114 89.096 33.114Z" fill="white"/>
<path d="M96.7894 22.1647C97.4964 22.1647 98.0695 21.5842 98.0695 20.8681C98.0695 20.1519 97.4964 19.5714 96.7894 19.5714C96.0824 19.5714 95.5093 20.1519 95.5093 20.8681C95.5093 21.5842 96.0824 22.1647 96.7894 22.1647Z" fill="white"/>
<path d="M91.5658 9.53872C92.2728 9.53872 92.8459 8.95819 92.8459 8.24208C92.8459 7.52596 92.2728 6.94543 91.5658 6.94543C90.8588 6.94543 90.2856 7.52596 90.2856 8.24208C90.2856 8.95819 90.8588 9.53872 91.5658 9.53872Z" fill="white"/>
<path d="M78.3377 7.60036C79.0447 7.60036 79.6178 7.01984 79.6178 6.30372C79.6178 5.58761 79.0447 5.00708 78.3377 5.00708C77.6307 5.00708 77.0576 5.58761 77.0576 6.30372C77.0576 7.01984 77.6307 7.60036 78.3377 7.60036Z" fill="white"/>
<path d="M51.5072 4.33913C52.2141 4.33913 52.7873 3.75861 52.7873 3.04249C52.7873 2.32638 52.2141 1.74585 51.5072 1.74585C50.8002 1.74585 50.2271 2.32638 50.2271 3.04249C50.2271 3.75861 50.8002 4.33913 51.5072 4.33913Z" fill="white"/>
<path d="M0.496582 32.7212H6.45752V45.1637C6.45752 47.626 7.75056 48.8703 10.0522 48.8703C11.5133 48.8703 12.8193 47.9535 12.8193 46.3425V32.7212H18.6122V45.74C18.6122 50.9004 14.8882 54.0699 9.22463 54.0045C3.13439 53.8997 0.496582 51.0052 0.496582 46.2115V32.7212Z" fill="white"/>
<path d="M27.1335 41.9941V53.3627H21.8062V32.7212H27.7283L34.8271 43.6837V32.7212H40.1933V53.3627H34.8013L27.1464 41.9941H27.1335Z" fill="white"/>
<path d="M54.6364 49.2108H47.9772L46.7488 53.3627H41.2275L47.8867 32.7212H55.7743L61.9292 53.3627H55.8389L54.6364 49.2108ZM51.3779 37.7768L49.1798 45.1637H53.5115L51.3779 37.7768Z" fill="white"/>
<path d="M63.2866 32.7212H69.2476V48.9096L77.2386 48.8048L76.6696 53.3627H63.2866V32.7212Z" fill="white"/>
<path d="M86.4969 43.7885C86.4323 42.6752 85.8375 42.0989 84.4668 42.0989C82.9022 42.0989 81.2084 42.5049 79.7989 43.1074L78.7645 39.0603C81.092 38.2483 83.5876 37.5803 86.1607 37.5803C90.0916 37.5803 92.1604 39.2961 92.1604 42.9765V53.3627L88.2296 54.0045L86.4969 51.2671V47.22C86.0961 47.1807 85.6306 47.1545 85.2039 47.1545C83.872 47.1545 83.2772 47.626 83.2772 48.569C83.2772 49.4073 83.8074 49.8788 84.4798 50.049C84.6091 50.049 84.8806 50.049 85.0099 49.9836L85.6047 53.3627C84.7772 53.7294 83.9108 54.0045 83.0703 54.0045C80.3032 54.0045 78.2085 52.1839 78.2085 49.3156C78.2085 46.1722 80.4067 44.1945 86.4969 43.7885Z" fill="white"/>
<path d="M105.143 45.7138C105.143 42.8455 103.746 41.9025 102.414 41.7977C102.285 41.7977 102.117 41.837 101.949 41.8632L101.354 38.2483C102.388 37.8161 103.513 37.5804 104.651 37.5804C108.078 37.5804 111.013 39.9772 111.013 45.3995C111.013 51.2017 106.655 53.9652 103.255 53.9652C101.263 53.9652 99.4532 53.7295 97.824 53.3889L96.6861 54.1617L94.7207 53.7556V30.6911L100.449 29.9446V49.5121C101.044 49.6824 101.742 49.7871 102.453 49.7871C104.186 49.7871 105.156 48.7393 105.156 45.7007L105.143 45.7138Z" fill="white"/>
<path d="M75.6481 40.6844H72.0146V44.8363L75.3249 44.8756L75.6481 40.6844Z" fill="white"/>
</svg>
