<svg width="136" height="50" viewBox="0 0 136 50" fill="none" xmlns="http://www.w3.org/2000/svg">
<path d="M2.15973 42.0986C3.67259 42.0986 4.71996 42.95 4.71996 44.5871C4.71996 46.4208 3.43984 47.4424 1.70716 47.4424C1.12529 47.4424 0.569283 47.3769 0.142578 47.3245V42.0986H2.15973ZM1.26753 46.5387C1.42269 46.5648 1.72009 46.591 1.95284 46.591C2.85797 46.591 3.56915 46.0933 3.56915 44.7705C3.56915 43.4477 2.75453 42.9107 1.83647 42.9107H1.26753V46.5387Z" fill="white"/>
<path d="M6.01299 41.5486C6.21987 41.5486 6.71123 41.8891 6.71123 42.138C6.71123 42.3868 6.29746 42.8059 6.07764 42.8059C5.85782 42.8059 5.37939 42.4654 5.37939 42.2296C5.37939 41.9939 5.78024 41.5486 6.01299 41.5486ZM6.58193 43.356V47.3769H5.5087V43.5132L6.58193 43.356Z" fill="white"/>
<path d="M8.6118 44.4954V47.3769H7.53857V43.5131L8.30147 43.356L8.54715 43.8275C8.79283 43.6441 9.2066 43.356 9.63331 43.356C9.77554 43.356 9.85312 43.3691 9.89192 43.3821L9.76261 44.3383C9.69796 44.3252 9.504 44.3121 9.40056 44.3121C9.16781 44.3121 8.83162 44.3775 8.6118 44.4823V44.4954Z" fill="white"/>
<path d="M12.0126 47.5078C11.0299 47.5078 10.1636 46.9446 10.1636 45.5432C10.1636 44.1418 10.9135 43.369 12.0514 43.369C13.1893 43.369 13.5384 44.1418 13.5384 44.9931C13.5384 45.1634 13.5255 45.4253 13.4996 45.5432H11.198C11.2497 46.4338 11.7669 46.6827 12.2454 46.6827C12.6592 46.6827 13.06 46.591 13.3833 46.46L13.5514 47.1673C13.1376 47.3637 12.6204 47.5078 11.9997 47.5078H12.0126ZM11.2239 44.9014H12.5557C12.5557 44.3251 12.323 44.0501 11.8833 44.0501C11.4954 44.0501 11.2885 44.2465 11.2239 44.9014Z" fill="white"/>
<path d="M17.2236 47.2328C16.8745 47.3899 16.3961 47.5078 15.9435 47.5078C14.9091 47.5078 14.0557 46.866 14.0557 45.5694C14.0557 44.1418 14.9867 43.369 16.0857 43.369C16.6159 43.369 16.9779 43.4607 17.1978 43.5655L17.0167 44.3906C16.7969 44.2858 16.3702 44.1811 16.0987 44.1811C15.5168 44.1811 15.1548 44.5216 15.1548 45.386C15.1548 46.3028 15.6849 46.6565 16.228 46.6565C16.5383 46.6565 16.8486 46.591 17.1072 46.4862L17.2236 47.2328Z" fill="white"/>
<path d="M20.8057 47.2328C20.4565 47.3899 19.9781 47.5078 19.5255 47.5078C18.4911 47.5078 17.6377 46.866 17.6377 45.5694C17.6377 44.1418 18.5687 43.369 19.6678 43.369C20.1979 43.369 20.56 43.4607 20.7798 43.5655L20.5988 44.3906C20.3789 44.2858 19.9522 44.1811 19.6807 44.1811C19.0988 44.1811 18.7368 44.5216 18.7368 45.386C18.7368 46.3028 19.2669 46.6565 19.81 46.6565C20.1203 46.6565 20.4307 46.591 20.6893 46.4862L20.8057 47.2328Z" fill="white"/>
<path d="M21.969 41.5486C22.1759 41.5486 22.6673 41.8891 22.6673 42.138C22.6673 42.3868 22.2535 42.8059 22.0337 42.8059C21.8139 42.8059 21.3354 42.4654 21.3354 42.2296C21.3354 41.9939 21.7363 41.5486 21.969 41.5486ZM22.538 43.356V47.3769H21.4648V43.5132L22.538 43.356Z" fill="white"/>
<path d="M25.0725 47.5079C24.0122 47.5079 23.2622 46.853 23.2622 45.5171C23.2622 44.1811 24.1027 43.3691 25.344 43.3691C26.456 43.3691 27.1543 44.024 27.1543 45.3599C27.1543 46.6958 26.3138 47.5079 25.0725 47.5079ZM25.1113 44.1287C24.6458 44.1287 24.3484 44.4038 24.3484 45.3337C24.3484 46.447 24.7621 46.7351 25.2923 46.7351C25.7578 46.7351 26.0552 46.4601 26.0552 45.5302C26.0552 44.4169 25.6414 44.1287 25.1113 44.1287ZM25.4604 41.6533L26.5465 41.8498L25.2406 43.0024H24.3613L25.4604 41.6533Z" fill="white"/>
<path d="M28.9385 44.3776V47.3769H27.8652V43.5131L28.6281 43.356L28.835 43.7489C29.1841 43.5655 29.6755 43.356 30.1022 43.356C30.8134 43.356 31.3177 43.7489 31.3177 44.5347V47.3769H30.2444V44.8883C30.2444 44.3383 29.9341 44.1811 29.6108 44.1811C29.404 44.1811 29.1195 44.2728 28.9514 44.3645L28.9385 44.3776Z" fill="white"/>
<path d="M35.2359 43.8406V47.3769H34.2402V42.0986H35.3523L37.6022 45.5694V42.0986H38.5978V47.3769H37.5763L35.2359 43.8406Z" fill="white"/>
<path d="M41.7011 47.1018C41.3907 47.3114 40.964 47.5209 40.6149 47.5209C39.9555 47.5209 39.4512 47.0887 39.4512 46.4077C39.4512 45.648 40.046 45.1241 41.5976 45.0717V44.9146C41.5976 44.43 41.3778 44.2466 40.964 44.2466C40.602 44.2466 40.1494 44.3776 39.7874 44.5085L39.5805 43.762C40.1494 43.5524 40.6666 43.3953 41.2873 43.3953C42.1536 43.3953 42.645 43.8144 42.645 44.705V47.3769L41.908 47.534L41.7011 47.1149V47.1018ZM41.5976 46.5648V45.7659C41.4554 45.7397 41.2744 45.7266 41.1192 45.7266C40.6408 45.7266 40.408 45.91 40.408 46.2243C40.408 46.5386 40.6408 46.7482 40.964 46.7482C41.1451 46.7482 41.4037 46.6565 41.5976 46.5648Z" fill="white"/>
<path d="M46.5112 47.2328C46.1621 47.3899 45.6837 47.5078 45.2311 47.5078C44.1967 47.5078 43.3433 46.866 43.3433 45.5694C43.3433 44.1418 44.2743 43.369 45.3733 43.369C45.9035 43.369 46.2655 43.4607 46.4854 43.5655L46.3043 44.3906C46.0845 44.2858 45.6578 44.1811 45.3863 44.1811C44.8044 44.1811 44.4423 44.5216 44.4423 45.386C44.4423 46.3028 44.9725 46.6565 45.5156 46.6565C45.8259 46.6565 46.1362 46.591 46.3948 46.4862L46.5112 47.2328Z" fill="white"/>
<path d="M47.6751 41.5486C47.882 41.5486 48.3733 41.8891 48.3733 42.138C48.3733 42.3868 47.9596 42.8059 47.7397 42.8059C47.5199 42.8059 47.0415 42.4654 47.0415 42.2296C47.0415 41.9939 47.4423 41.5486 47.6751 41.5486ZM48.244 43.356V47.3769H47.1708V43.5132L48.244 43.356Z" fill="white"/>
<path d="M50.778 47.5078C49.7177 47.5078 48.9678 46.8529 48.9678 45.517C48.9678 44.1811 49.8083 43.369 51.0496 43.369C52.1616 43.369 52.8598 44.0239 52.8598 45.3598C52.8598 46.6958 52.0194 47.5078 50.778 47.5078ZM50.8168 44.1287C50.3513 44.1287 50.0539 44.4037 50.0539 45.3336C50.0539 46.4469 50.4677 46.735 50.9979 46.735C51.4633 46.735 51.7607 46.46 51.7607 45.5301C51.7607 44.4168 51.347 44.1287 50.8168 44.1287Z" fill="white"/>
<path d="M54.6445 44.3776V47.3769H53.5713V43.5131L54.3342 43.356L54.5411 43.7489C54.8902 43.5655 55.3816 43.356 55.8083 43.356C56.5194 43.356 57.0237 43.7489 57.0237 44.5347V47.3769H55.9505V44.8883C55.9505 44.3383 55.6402 44.1811 55.3169 44.1811C55.11 44.1811 54.8255 44.2728 54.6574 44.3645L54.6445 44.3776Z" fill="white"/>
<path d="M59.9716 47.1018C59.6612 47.3114 59.2345 47.5209 58.8854 47.5209C58.226 47.5209 57.7217 47.0887 57.7217 46.4077C57.7217 45.648 58.3165 45.1241 59.8681 45.0717V44.9146C59.8681 44.43 59.6483 44.2466 59.2345 44.2466C58.8725 44.2466 58.4199 44.3776 58.0579 44.5085L57.851 43.762C58.4199 43.5524 58.9371 43.3953 59.5578 43.3953C60.4241 43.3953 60.9155 43.8144 60.9155 44.705V47.3769L60.1785 47.534L59.9716 47.1149V47.1018ZM59.8681 46.5648V45.7659C59.7259 45.7397 59.5449 45.7266 59.3897 45.7266C58.9113 45.7266 58.6785 45.91 58.6785 46.2243C58.6785 46.5386 58.9113 46.7482 59.2345 46.7482C59.4156 46.7482 59.6742 46.6565 59.8681 46.5648Z" fill="white"/>
<path d="M63.5535 47.3638C63.3724 47.4293 62.9975 47.5078 62.7388 47.5078C62.1828 47.5078 61.7949 47.2328 61.7949 46.5517V41.5354L62.8681 41.3914V46.316C62.8681 46.5386 63.0104 46.6041 63.1655 46.6041C63.2561 46.6041 63.3983 46.5779 63.4759 46.5517L63.5664 47.3507L63.5535 47.3638Z" fill="white"/>
<path d="M68.4798 47.1018C68.1824 47.2851 67.691 47.5209 67.2902 47.5209C66.4885 47.5209 65.7256 46.9315 65.7256 45.5432C65.7256 44.0632 66.76 43.3821 67.6264 43.3821C67.9108 43.3821 68.1824 43.4083 68.4151 43.4476V41.5616L69.4883 41.4044V47.3637L68.7254 47.5209L68.4927 47.1018H68.4798ZM68.4022 46.5517V44.2989C68.1953 44.2335 67.9238 44.1811 67.6522 44.1811C67.1609 44.1811 66.8117 44.5478 66.8117 45.4646C66.8117 46.3814 67.329 46.7089 67.7557 46.7089C67.9755 46.7089 68.2082 46.6434 68.4151 46.5517H68.4022Z" fill="white"/>
<path d="M72.0488 47.5078C71.066 47.5078 70.1997 46.9446 70.1997 45.5432C70.1997 44.1418 70.9497 43.369 72.0876 43.369C73.2254 43.369 73.5746 44.1418 73.5746 44.9931C73.5746 45.1634 73.5616 45.4253 73.5358 45.5432H71.2341C71.2859 46.4338 71.8031 46.6827 72.2815 46.6827C72.6953 46.6827 73.0961 46.591 73.4194 46.46L73.5875 47.1673C73.1737 47.3637 72.6436 47.5078 72.0358 47.5078H72.0488ZM71.26 44.9014H72.5918C72.5918 44.3251 72.3591 44.0501 71.9195 44.0501C71.5315 44.0501 71.3247 44.2465 71.26 44.9014Z" fill="white"/>
<path d="M76.3286 42.0986H79.5224L79.419 42.9631L77.4536 42.9369V44.2728H79.2897L79.1992 45.0848L77.4536 45.0586V46.5125L79.6647 46.4863L79.5612 47.3769H76.3286V42.0986Z" fill="white"/>
<path d="M80.0657 47.272L80.2596 46.4338C80.6734 46.591 81.126 46.722 81.6044 46.722C81.9147 46.722 82.0699 46.5779 82.0699 46.3814C82.0699 46.185 81.9794 46.0016 81.6044 45.8706L81.0096 45.6611C80.4665 45.4777 80.1562 45.1634 80.1562 44.6002C80.1562 43.8667 80.8932 43.369 81.6949 43.369C82.3156 43.369 82.7423 43.4607 83.0009 43.5524L82.8199 44.3775C82.4319 44.2334 81.9794 44.1287 81.6303 44.1287C81.2811 44.1287 81.1389 44.2727 81.1389 44.4692C81.1389 44.6657 81.2294 44.8097 81.6173 44.9407L82.1863 45.1241C82.8069 45.3336 83.0785 45.7135 83.0785 46.2243C83.0785 47.128 82.1345 47.5209 81.4492 47.5209C80.7639 47.5209 80.3501 47.3899 80.0527 47.272H80.0657Z" fill="white"/>
<path d="M85.0957 47.5079C84.488 47.5079 83.9061 47.1804 83.9191 46.3815L83.9449 44.2335H83.376V43.5786L83.9578 43.487V42.7928L85.044 42.6356V43.487H86.2336L86.1431 44.2335H85.0311L85.0052 45.9624C85.0052 46.4339 85.1862 46.6303 85.5483 46.6303C85.8586 46.6303 86.0267 46.5648 86.156 46.5255L86.2336 47.2459C86.0138 47.3507 85.5483 47.5079 85.1087 47.5079H85.0957Z" fill="white"/>
<path d="M87.9014 44.4954V47.3769H86.8281V43.5131L87.591 43.356L87.8367 43.8275C88.0824 43.6441 88.4961 43.356 88.9229 43.356C89.0651 43.356 89.1427 43.3691 89.1815 43.3821L89.0522 44.3383C88.9875 44.3252 88.7935 44.3121 88.6901 44.3121C88.4574 44.3121 88.1212 44.3775 87.9014 44.4823V44.4954Z" fill="white"/>
<path d="M91.703 47.1018C91.3927 47.3114 90.966 47.5209 90.6169 47.5209C89.9574 47.5209 89.4531 47.0887 89.4531 46.4077C89.4531 45.648 90.0479 45.1241 91.5996 45.0717V44.9146C91.5996 44.43 91.3798 44.2466 90.966 44.2466C90.6039 44.2466 90.1514 44.3776 89.7893 44.5085L89.5824 43.762C90.1514 43.5524 90.6686 43.3953 91.2892 43.3953C92.1556 43.3953 92.6469 43.8144 92.6469 44.705V47.3769L91.9099 47.534L91.703 47.1149V47.1018ZM91.5996 46.5648V45.7659C91.4573 45.7397 91.2763 45.7266 91.1212 45.7266C90.6427 45.7266 90.41 45.91 90.41 46.2243C90.41 46.5386 90.6427 46.7482 90.966 46.7482C91.147 46.7482 91.4056 46.6565 91.5996 46.5648Z" fill="white"/>
<path d="M94.8711 47.5079C94.2634 47.5079 93.6815 47.1804 93.6944 46.3815L93.7203 44.2335H93.1514V43.5786L93.7332 43.487V42.7928L94.8194 42.6356V43.487H96.009L95.9185 44.2335H94.8065L94.7806 45.9624C94.7806 46.4339 94.9616 46.6303 95.3237 46.6303C95.634 46.6303 95.8021 46.5648 95.9314 46.5255L96.009 47.2459C95.7892 47.3507 95.3237 47.5079 94.884 47.5079H94.8711Z" fill="white"/>
<path d="M98.2201 47.5078C97.2374 47.5078 96.3711 46.9446 96.3711 45.5432C96.3711 44.1418 97.1211 43.369 98.2589 43.369C99.3968 43.369 99.7459 44.1418 99.7459 44.9931C99.7459 45.1634 99.733 45.4253 99.7072 45.5432H97.4055C97.4573 46.4338 97.9745 46.6827 98.4529 46.6827C98.8667 46.6827 99.2675 46.591 99.5908 46.46L99.7589 47.1673C99.3451 47.3637 98.8149 47.5078 98.2072 47.5078H98.2201ZM97.4314 44.9014H98.7632C98.7632 44.3251 98.5305 44.0501 98.0908 44.0501C97.7029 44.0501 97.496 44.2465 97.4314 44.9014Z" fill="white"/>
<path d="M101.595 49.276C100.573 49.276 100.082 48.8307 100.082 48.3068C100.082 47.9139 100.392 47.6519 100.625 47.4817C100.69 47.4424 100.832 47.3376 100.961 47.259C100.664 47.128 100.548 46.9054 100.548 46.6696C100.548 46.4077 100.767 46.1326 101.013 45.9362C100.535 45.7528 100.224 45.3599 100.224 44.7967C100.224 43.9454 100.871 43.3822 101.957 43.3822C102.306 43.3822 102.616 43.4739 102.875 43.6179C103.185 43.5394 103.922 43.3691 103.935 43.3822V44.2466H103.767L103.353 44.1811C103.405 44.3121 103.431 44.4693 103.431 44.6395C103.431 45.504 102.72 46.0541 101.724 46.0541H101.608C101.53 46.1326 101.491 46.2112 101.491 46.316C101.491 46.447 101.621 46.5387 101.957 46.578L102.797 46.6565C103.431 46.722 103.819 46.9316 103.819 47.5995C103.819 48.5164 102.862 49.2891 101.595 49.2891V49.276ZM102.836 47.8746C102.836 47.6781 102.681 47.5341 102.267 47.4817L101.569 47.39C101.569 47.39 101.453 47.4817 101.401 47.521C101.194 47.6912 101.065 47.8615 101.065 48.0449C101.065 48.3068 101.323 48.5164 101.892 48.5164C102.461 48.5164 102.836 48.2151 102.836 47.8746ZM101.724 43.9978C101.388 43.9978 101.233 44.1549 101.233 44.6657C101.233 45.2158 101.556 45.4123 101.905 45.4123C102.216 45.4123 102.397 45.242 102.397 44.7443C102.397 44.1942 102.086 43.9978 101.724 43.9978Z" fill="white"/>
<path d="M104.983 41.5486C105.203 41.5486 105.681 41.8891 105.681 42.138C105.681 42.3868 105.267 42.8059 105.047 42.8059C104.828 42.8059 104.349 42.4654 104.349 42.2296C104.349 41.9939 104.75 41.5486 104.983 41.5486ZM105.552 43.356V47.3769H104.478V43.5132L105.552 43.356Z" fill="white"/>
<path d="M108.513 47.1018C108.202 47.3114 107.776 47.5209 107.426 47.5209C106.767 47.5209 106.263 47.0887 106.263 46.4077C106.263 45.648 106.857 45.1241 108.409 45.0717V44.9146C108.409 44.43 108.189 44.2466 107.776 44.2466C107.414 44.2466 106.961 44.3776 106.599 44.5085L106.392 43.762C106.961 43.5524 107.478 43.3953 108.099 43.3953C108.965 43.3953 109.457 43.8144 109.457 44.705V47.3769L108.719 47.534L108.513 47.1149V47.1018ZM108.409 46.5648V45.7659C108.267 45.7397 108.086 45.7266 107.931 45.7266C107.452 45.7266 107.22 45.91 107.22 46.2243C107.22 46.5386 107.452 46.7482 107.776 46.7482C107.957 46.7482 108.215 46.6565 108.409 46.5648Z" fill="white"/>
<path d="M114.383 42.0986C115.896 42.0986 116.943 42.95 116.943 44.5871C116.943 46.4208 115.663 47.4424 113.93 47.4424C113.348 47.4424 112.792 47.3769 112.366 47.3245V42.0986H114.37H114.383ZM113.504 46.5387C113.659 46.5648 113.956 46.591 114.189 46.591C115.094 46.591 115.805 46.0933 115.805 44.7705C115.805 43.4477 114.991 42.9107 114.073 42.9107H113.504V46.5387Z" fill="white"/>
<path d="M118.236 41.5486C118.456 41.5486 118.934 41.8891 118.934 42.138C118.934 42.3868 118.521 42.8059 118.301 42.8059C118.081 42.8059 117.603 42.4654 117.603 42.2296C117.603 41.9939 118.003 41.5486 118.236 41.5486ZM118.805 43.356V47.3769H117.732V43.5132L118.805 43.356Z" fill="white"/>
<path d="M120.848 49.276C119.827 49.276 119.335 48.8307 119.335 48.3068C119.335 47.9139 119.646 47.6519 119.879 47.4817C119.943 47.4424 120.085 47.3376 120.215 47.259C119.917 47.128 119.801 46.9054 119.801 46.6696C119.801 46.4077 120.021 46.1326 120.266 45.9362C119.788 45.7528 119.478 45.3599 119.478 44.7967C119.478 43.9454 120.124 43.3822 121.21 43.3822C121.559 43.3822 121.87 43.4739 122.128 43.6179C122.439 43.5394 123.176 43.3691 123.189 43.3822V44.2466H123.021L122.607 44.1811C122.659 44.3121 122.684 44.4693 122.684 44.6395C122.684 45.504 121.973 46.0541 120.978 46.0541H120.861C120.784 46.1326 120.745 46.2112 120.745 46.316C120.745 46.447 120.874 46.5387 121.21 46.578L122.051 46.6565C122.684 46.722 123.072 46.9316 123.072 47.5995C123.072 48.5164 122.115 49.2891 120.848 49.2891V49.276ZM122.09 47.8746C122.09 47.6781 121.934 47.5341 121.521 47.4817L120.822 47.39C120.822 47.39 120.706 47.4817 120.654 47.521C120.447 47.6912 120.318 47.8615 120.318 48.0449C120.318 48.3068 120.577 48.5164 121.146 48.5164C121.715 48.5164 122.09 48.2151 122.09 47.8746ZM120.978 43.9978C120.641 43.9978 120.486 44.1549 120.486 44.6657C120.486 45.2158 120.81 45.4123 121.159 45.4123C121.469 45.4123 121.65 45.242 121.65 44.7443C121.65 44.1942 121.34 43.9978 120.978 43.9978Z" fill="white"/>
<path d="M124.236 41.5486C124.456 41.5486 124.934 41.8891 124.934 42.138C124.934 42.3868 124.521 42.8059 124.301 42.8059C124.081 42.8059 123.603 42.4654 123.603 42.2296C123.603 41.9939 124.003 41.5486 124.236 41.5486ZM124.805 43.356V47.3769H123.732V43.5132L124.805 43.356Z" fill="white"/>
<path d="M127.055 47.5079C126.447 47.5079 125.865 47.1804 125.878 46.3815L125.904 44.2335H125.335V43.5786L125.917 43.487V42.7928L127.003 42.6356V43.487H128.193L128.102 44.2335H126.99L126.964 45.9624C126.964 46.4339 127.145 46.6303 127.507 46.6303C127.818 46.6303 127.986 46.5648 128.115 46.5255L128.193 47.2459C127.973 47.3507 127.507 47.5079 127.068 47.5079H127.055Z" fill="white"/>
<path d="M130.792 47.1018C130.482 47.3114 130.055 47.5209 129.706 47.5209C129.046 47.5209 128.542 47.0887 128.542 46.4077C128.542 45.648 129.137 45.1241 130.688 45.0717V44.9146C130.688 44.43 130.469 44.2466 130.055 44.2466C129.693 44.2466 129.24 44.3776 128.878 44.5085L128.671 43.762C129.24 43.5524 129.757 43.3953 130.378 43.3953C131.244 43.3953 131.736 43.8144 131.736 44.705V47.3769L130.999 47.534L130.792 47.1149V47.1018ZM130.688 46.5648V45.7659C130.546 45.7397 130.365 45.7266 130.21 45.7266C129.732 45.7266 129.499 45.91 129.499 46.2243C129.499 46.5386 129.732 46.7482 130.055 46.7482C130.236 46.7482 130.494 46.6565 130.688 46.5648Z" fill="white"/>
<path d="M134.386 47.3638C134.205 47.4293 133.83 47.5078 133.572 47.5078C133.016 47.5078 132.628 47.2328 132.628 46.5517V41.5354L133.701 41.3914V46.316C133.701 46.5386 133.843 46.6041 133.999 46.6041C134.089 46.6041 134.231 46.5779 134.309 46.5517L134.399 47.3507L134.386 47.3638Z" fill="white"/>
<path d="M15.1676 0.396484C25.2405 0.396484 32.6755 5.60925 32.6755 17.5017C32.6755 30.0883 23.6371 36.5191 11.6118 36.5191C7.08612 36.5191 3.65955 36.1655 -0.0126953 35.7071V0.396484H15.1547H15.1676ZM10.2411 28.569C10.4092 28.6214 11.8445 28.8047 12.879 28.8047C18.8916 28.8047 22.2665 26.0281 22.2665 18.9424C22.2665 10.1933 16.9391 7.69173 12.4781 7.69173H10.2411V28.5559V28.569Z" fill="white"/>
<path d="M46.2524 16.336V35.8773H37.0977V0.396484H47.2868L59.4803 19.2436V0.396484H68.6997V35.8773H59.4285L46.2653 16.336H46.2524Z" fill="white"/>
<path d="M74.5312 0.396484H97.4828L96.6294 8.04536L84.7851 7.92749V28.2154L98.4138 28.0451L97.5604 35.8773H74.5571V0.396484H74.5312Z" fill="white"/>
<path d="M117.745 0.396484C127.818 0.396484 135.253 5.60925 135.253 17.5017C135.253 30.0883 126.214 36.5191 114.189 36.5191C109.663 36.5191 106.237 36.1655 102.564 35.7071V0.396484H117.732H117.745ZM112.818 28.569C112.986 28.6214 114.422 28.8047 115.456 28.8047C121.469 28.8047 124.844 26.0281 124.844 18.9424C124.844 10.1933 119.516 7.69173 115.055 7.69173H112.818V28.5559V28.569Z" fill="white"/>
<path d="M96.0477 14.2928H89.8022V21.4309L95.4787 21.4833L96.0477 14.2928Z" fill="white"/>
</svg>
